<svg width="328.198" height="447.12" xmlns="http://www.w3.org/2000/svg">
    <g style="fill:none;stroke:#000;strokeWidth:1.15302;stroke-dasharray:none;stroke-opacity:1">
        <path
            style="fill:none;fill-opacity:1;stroke:#000;strokeWidth:1.15302;stroke-linecap:round;stroke-linejoin:round;stroke-dasharray:none;stroke-opacity:1"
            d="m502.447 1738.066-101.468 15.91-37.973 98.913zM418.658 1596.602l-7.48-10.239-9.758 6.834 10.518 8.84zM423.252 1577.906l-8.887 6.225 4.293 12.47 15.823.948z"
            transform="matrix(.86735 0 0 .86723 -208.373 -1208.164)" />
        <path
            style="fill:none;fill-opacity:1;stroke:#000;strokeWidth:1.15302;stroke-linecap:round;stroke-linejoin:round;stroke-dasharray:none;stroke-opacity:1"
            d="m414.236 1619.715-2.298-17.678-10.518-8.84 9.758-6.834 7.48 10.239-4.293-12.471 8.887-6.225-29.258 13.17 9.988 22.98z"
            transform="matrix(.86735 0 0 .86723 -208.373 -1208.164)" />
        <path
            style="fill:none;fill-opacity:1;stroke:#000;strokeWidth:1.15302;stroke-linecap:round;stroke-linejoin:round;stroke-dasharray:none;stroke-opacity:1"
            d="m472.041 1613.969-48.789-36.063 11.229 19.643-15.823-.947-6.72 5.435 2.298 17.678 24.573-10.342z"
            transform="matrix(.86735 0 0 .86723 -208.373 -1208.164)" />
        <path
            style="fill:none;fill-opacity:1;stroke:#000;strokeWidth:1.15302;stroke-linecap:round;stroke-linejoin:round;stroke-dasharray:none;stroke-opacity:1"
            d="m424.666 1480.326-1.414 97.58 48.789 36.063z" transform="matrix(.86735 0 0 .86723 -208.373 -1208.164)" />
        <path
            style="fill:none;fill-opacity:1;stroke:#000;strokeWidth:1.15302;stroke-linecap:round;stroke-linejoin:round;stroke-dasharray:none;stroke-opacity:1"
            d="m424.666 1480.326 47.375 133.643 7.78-116.672zM490.418 1475.568l38.547-79.035-104.299 83.793z"
            transform="matrix(.86735 0 0 .86723 -208.373 -1208.164)" />
        <path
            style="fill:none;fill-opacity:1;stroke:#000;strokeWidth:1.15302;stroke-linecap:round;stroke-linejoin:round;stroke-dasharray:none;stroke-opacity:1"
            d="m490.418 1475.568-65.752 4.758 55.154 16.97zM507.75 1474.314l21.215-77.78-38.547 79.034z"
            transform="matrix(.86735 0 0 .86723 -208.373 -1208.164)" />
        <path
            style="fill:none;fill-opacity:1;stroke:#000;strokeWidth:1.15302;stroke-linecap:round;stroke-linejoin:round;stroke-dasharray:none;stroke-opacity:1"
            d="m507.75 1474.314-17.332 1.254-10.598 21.729zM556.895 1527.348l-27.93-130.815-21.215 77.782zM556.895 1527.348l-49.145-53.033-27.93 22.982zM547.172 1545.953l31.996 23.115-22.273-41.72z"
            transform="matrix(.86735 0 0 .86723 -208.373 -1208.164)" />
        <path
            style="fill:none;fill-opacity:1;stroke:#000;strokeWidth:1.15302;stroke-linecap:round;stroke-linejoin:round;stroke-dasharray:none;stroke-opacity:1"
            d="m547.172 1545.953 9.723-18.605-77.075-30.051zM528.258 1582.149l50.91-13.08-31.996-23.116z"
            transform="matrix(.86735 0 0 .86723 -208.373 -1208.164)" />
        <path
            style="fill:none;fill-opacity:1;stroke:#000;strokeWidth:1.15302;stroke-linecap:round;stroke-linejoin:round;stroke-dasharray:none;stroke-opacity:1"
            d="m528.258 1582.149 18.914-36.196-67.352-48.656z"
            transform="matrix(.86735 0 0 .86723 -208.373 -1208.164)" />
        <path
            style="fill:none;fill-opacity:1;stroke:#000;strokeWidth:1.15302;stroke-linecap:round;stroke-linejoin:round;stroke-dasharray:none;stroke-opacity:1"
            d="m528.258 1582.149-48.438-84.852-7.779 116.672zM562.428 1607.574l-.584-1.736 17.324-36.77-50.91 13.08zM575.986 1647.91l42.073 1.06-55.631-41.396z"
            transform="matrix(.86735 0 0 .86723 -208.373 -1208.164)" />
        <path
            style="fill:none;fill-opacity:1;stroke:#000;strokeWidth:1.15302;stroke-linecap:round;stroke-linejoin:round;stroke-dasharray:none;stroke-opacity:1"
            d="m575.986 1647.91-13.558-40.336-34.17-25.426-56.217 31.82zM575.986 1647.91l-103.945-33.941 22.629 46.67zM578.461 1681.498l39.598-32.527-42.073-1.06z"
            transform="matrix(.86735 0 0 .86723 -208.373 -1208.164)" />
        <path
            style="fill:none;fill-opacity:1;stroke:#000;strokeWidth:1.15302;stroke-linecap:round;stroke-linejoin:round;stroke-dasharray:none;stroke-opacity:1"
            d="m573.865 1703.772 15.203 26.869 17.842-44.358 11.149-37.312-39.598 32.527z"
            transform="matrix(.86735 0 0 .86723 -208.373 -1208.164)" />
        <path
            style="fill:none;fill-opacity:1;stroke:#000;strokeWidth:1.15302;stroke-linecap:round;stroke-linejoin:round;stroke-dasharray:none;stroke-opacity:1"
            d="m526.842 1699.883 62.226 30.758-15.203-26.87z"
            transform="matrix(.86735 0 0 .86723 -208.373 -1208.164)" />
        <path
            style="fill:none;fill-opacity:1;stroke:#000;strokeWidth:1.15302;stroke-linecap:round;stroke-linejoin:round;stroke-dasharray:none;stroke-opacity:1"
            d="m526.842 1699.883 47.023 3.889 4.596-22.274-2.475-33.588z"
            transform="matrix(.86735 0 0 .86723 -208.373 -1208.164)" />
        <path
            style="fill:none;fill-opacity:1;stroke:#000;strokeWidth:1.15302;stroke-linecap:round;stroke-linejoin:round;stroke-dasharray:none;stroke-opacity:1"
            d="m526.842 1699.883 49.144-51.973-81.316 12.729zM503.549 1885.51l4.908-76.733-46.492 41.342-65.23 58.006zM539.57 1745.49l-31.113 63.287-4.908 76.733 31.78-6.729zM539.57 1745.49l49.498-14.85-62.226-30.757z"
            transform="matrix(.86735 0 0 .86723 -208.373 -1208.164)" />
        <path
            style="fill:none;fill-opacity:1;stroke:#000;strokeWidth:1.15302;stroke-linecap:round;stroke-linejoin:round;stroke-dasharray:none;stroke-opacity:1"
            d="m539.57 1745.49-12.728-45.607-24.395 27.576zM539.57 1745.49l-37.123-18.031-101.468 26.518 101.468-15.91z"
            transform="matrix(.86735 0 0 .86723 -208.373 -1208.164)" />
        <path
            style="fill:none;fill-opacity:1;stroke:#000;strokeWidth:1.15302;stroke-linecap:round;stroke-linejoin:round;stroke-dasharray:none;stroke-opacity:1"
            d="m472.252 1786.643-75.518 121.482 65.23-58.006 46.493-41.342 31.113-63.287z"
            transform="matrix(.86735 0 0 .86723 -208.373 -1208.164)" />
        <path
            style="fill:none;fill-opacity:1;stroke:#000;strokeWidth:1.15302;stroke-linecap:round;stroke-linejoin:round;stroke-dasharray:none;stroke-opacity:1"
            d="m472.252 1786.643 67.318-41.153-37.123-7.424zM363.244 1853.277l33.49 54.848 75.518-121.482-46.045 28.146z"
            transform="matrix(.86735 0 0 .86723 -208.373 -1208.164)" />
        <path
            style="fill:none;fill-opacity:1;stroke:#000;strokeWidth:1.15302;stroke-linecap:round;stroke-linejoin:round;stroke-dasharray:none;stroke-opacity:1"
            d="m363.244 1853.277 62.963-38.488 46.045-28.146 30.195-48.577-139.441 114.823zM320.367 1879.488l76.367 28.637-33.49-54.848z"
            transform="matrix(.86735 0 0 .86723 -208.373 -1208.164)" />
        <path
            style="fill:none;fill-opacity:1;stroke:#000;strokeWidth:1.15302;stroke-linecap:round;stroke-linejoin:round;stroke-dasharray:none;stroke-opacity:1"
            d="m320.367 1879.488 42.877-26.21-.238-.39z" transform="matrix(.86735 0 0 .86723 -208.373 -1208.164)" />
        <path
            style="fill:none;fill-opacity:1;stroke:#000;strokeWidth:1.15302;stroke-linecap:round;stroke-linejoin:round;stroke-dasharray:none;stroke-opacity:1"
            d="m368.805 1751.855-127.987-19.269 79.55 146.902z"
            transform="matrix(.86735 0 0 .86723 -208.373 -1208.164)" />
        <path
            style="fill:none;fill-opacity:1;stroke:#000;strokeWidth:1.15302;stroke-linecap:round;stroke-linejoin:round;stroke-dasharray:none;stroke-opacity:1"
            d="m368.805 1751.855-48.438 127.633 42.639-26.6 37.973-98.911z"
            transform="matrix(.86735 0 0 .86723 -208.373 -1208.164)" />
        <path
            style="fill:none;fill-opacity:1;stroke:#000;strokeWidth:1.15302;stroke-linecap:round;stroke-linejoin:round;stroke-dasharray:none;stroke-opacity:1"
            d="m392.139 1703.418-151.32 29.168 127.986 19.27zM392.139 1703.418l-23.334 48.438 32.174 2.12 101.468-26.517z"
            transform="matrix(.86735 0 0 .86723 -208.373 -1208.164)" />
        <path
            style="fill:none;fill-opacity:1;stroke:#000;strokeWidth:1.15302;stroke-linecap:round;stroke-linejoin:round;stroke-dasharray:none;stroke-opacity:1"
            d="m392.139 1703.418 110.308 24.041 24.395-27.576z"
            transform="matrix(.86735 0 0 .86723 -208.373 -1208.164)" />
        <path
            style="fill:none;fill-opacity:1;stroke:#000;strokeWidth:1.15302;stroke-linecap:round;stroke-linejoin:round;stroke-dasharray:none;stroke-opacity:1"
            d="m392.139 1703.418 134.703-3.535-32.172-39.244zM392.139 1703.418l102.53-42.78-22.628-46.67zM359.611 1657.102l-118.793 75.484 151.32-29.168z"
            transform="matrix(.86735 0 0 .86723 -208.373 -1208.164)" />
        <path
            style="fill:none;fill-opacity:1;stroke:#000;strokeWidth:1.15302;stroke-linecap:round;stroke-linejoin:round;stroke-dasharray:none;stroke-opacity:1"
            d="m359.611 1657.102 32.528 46.316 79.902-89.45zM326.73 1596.998l-85.912 135.588 118.793-75.484z"
            transform="matrix(.86735 0 0 .86723 -208.373 -1208.164)" />
        <path
            style="fill:none;fill-opacity:1;stroke:#000;strokeWidth:1.15302;stroke-linecap:round;stroke-linejoin:round;stroke-dasharray:none;stroke-opacity:1"
            d="m326.73 1596.998 32.881 60.104 112.43-43.133-33.232-4.596-24.573 10.342z"
            transform="matrix(.86735 0 0 .86723 -208.373 -1208.164)" />
        <path
            style="fill:none;fill-opacity:1;stroke:#000;strokeWidth:1.15302;stroke-linecap:round;stroke-linejoin:round;stroke-dasharray:none;stroke-opacity:1"
            d="m326.73 1596.998 87.506 22.717-10.254-5.658-9.988-22.98 29.258-13.17zM326.73 1596.998l96.522-19.092 1.414-97.58-64.717 77.098z"
            transform="matrix(.86735 0 0 .86723 -208.373 -1208.164)" />
        <path
            style="fill:none;fill-opacity:1;stroke:#000;strokeWidth:1.15302;stroke-linecap:round;stroke-linejoin:round;stroke-dasharray:none;stroke-opacity:1"
            d="m307.756 1542.512-25.219-75.975 2.121 94.045-43.84 172.004 85.913-135.588z"
            transform="matrix(.86735 0 0 .86723 -208.373 -1208.164)" />
        <path
            style="fill:none;fill-opacity:1;stroke:#000;strokeWidth:1.15302;stroke-linecap:round;stroke-linejoin:round;stroke-dasharray:none;stroke-opacity:1"
            d="m307.756 1542.512 18.975 54.486 33.218-39.574 64.717-77.098z"
            transform="matrix(.86735 0 0 .86723 -208.373 -1208.164)" />
        <path
            style="fill:none;fill-opacity:1;stroke:#000;strokeWidth:1.15302;stroke-linecap:round;stroke-linejoin:round;stroke-dasharray:none;stroke-opacity:1"
            d="m337.934 1474.766-55.397-8.229 25.219 75.975 28.057-25.166z"
            transform="matrix(.86735 0 0 .86723 -208.373 -1208.164)" />
        <path
            style="fill:none;fill-opacity:1;stroke:#000;strokeWidth:1.15302;stroke-linecap:round;stroke-linejoin:round;stroke-dasharray:none;stroke-opacity:1"
            d="m337.934 1474.766-2.121 42.58-28.057 25.166 116.91-62.186z"
            transform="matrix(.86735 0 0 .86723 -208.373 -1208.164)" />
        <path
            style="fill:none;fill-opacity:1;stroke:#000;strokeWidth:1.15302;stroke-linecap:round;stroke-linejoin:round;stroke-dasharray:none;stroke-opacity:1"
            d="m337.934 1474.766 86.732 5.56-69.744-16.773zM293.852 1393.705l-11.315 72.832 55.397 8.229zM293.852 1393.705l44.082 81.06 16.988-11.212z"
            transform="matrix(.86735 0 0 .86723 -208.373 -1208.164)" />
        <path
            style="fill:none;fill-opacity:1;stroke:#000;strokeWidth:1.15302;stroke-linecap:round;stroke-linejoin:round;stroke-dasharray:none;stroke-opacity:1"
            d="m293.852 1393.705 61.07 69.848 69.744 16.773z"
            transform="matrix(.86735 0 0 .86723 -208.373 -1208.164)" />
    </g>
</svg>