<?xml version="1.0" encoding="UTF-8" standalone="no"?>
<!-- Created with Inkscape (http://www.inkscape.org/) -->

<svg version="1.1" id="svg1" width="195.38756mm" height="207.09131mm" viewBox="0 0 738.47268 782.70733"
  sodipodi:docname="Template Polydot US letter.svg" inkscape:version="1.3.2 (091e20e, 2023-11-25, custom)"
  xml:space="preserve" xmlns:inkscape="http://www.inkscape.org/namespaces/inkscape"
  xmlns:sodipodi="http://sodipodi.sourceforge.net/DTD/sodipodi-0.dtd" xmlns="http://www.w3.org/2000/svg"
  xmlns:svg="http://www.w3.org/2000/svg">
  <sodipodi:namedview id="namedview1" pagecolor="#ffffff" bordercolor="#666666" borderopacity="1.0"
    inkscape:showpageshadow="2" inkscape:pageopacity="0.0" inkscape:pagecheckerboard="0" inkscape:deskcolor="#d1d1d1"
    showgrid="false" showguides="true" inkscape:zoom="1.1439497" inkscape:cx="439.26757" inkscape:cy="525.37275"
    inkscape:window-width="3840" inkscape:window-height="2054" inkscape:window-x="-11" inkscape:window-y="-11"
    inkscape:window-maximized="1" inkscape:current-layer="svg1" inkscape:document-units="mm" />
  <style id="style1" />
  <defs id="defs1" />
  <path style="display:inline;fill:none;stroke:#000000;strokeWidth:0.1pt"
    d="m 13.729123,772.1592 15.054643,-45.62587 33.166368,-48.06313 31.431742,-45.54939 -23.19094,63.1645 54.668844,-51.94195 22.44508,27.09836 36.95231,-1.3686 30.93045,-28.74068 57.48137,-34.48883 16.14953,-40.51068 -16.42325,-70.61995 71.80277,-43.67876 40.42276,17.949 59.06186,69.92263 -79.42742,53.68575 -45.99286,48.89566 45.99286,-48.89566 -59.76909,-55.57435 80.13466,-68.03403 -112.22553,25.72976 32.09087,42.30427 -15.66762,28.31568 29.44385,76.15433 38.70994,36.00027 v 0 l 50.05909,-68.39818 36.65125,-70.1835 -9.58926,130.84058 77.31719,-54.31533 -42.95354,-45.55728 -43.52206,110.54551 -67.96267,-2.9318 1.93551,39.48416 99.09753,17.03239 8.84263,-11.80409 -54.30713,-9.08452 12.14258,-12.79526 115.38705,-75.86533 -88.67852,76.13703 15.45603,21.60808 8.01801,-20.06673 65.20448,-77.67838 -71.61343,-54.58106 -24.77439,-30.96797 90.58132,58.06495 55.35526,28.64538 -69.36977,-124.19704 123.17663,96.71296 -53.80686,27.48408 87.87163,97.54911 -16.25818,48.19391 h -49.16167 l -25.03846,-123.69168 -28.32533,-13.08322 28.32533,13.08322 90.45831,75.49777 42.19386,48.19391 -17.41949,-114.38796 -14.44167,-21.84206 -50.97818,-184.86916 -101.03301,-8.51619 47.22618,48.77456 -62.78909,10.90075 -36.69554,-37.61063 52.25845,-22.06468 h -92.90393 l -38.85349,-123.99137 -28.11476,47.73272 66.96825,76.25865 -58.28766,27.23939 -23.06489,-27.13846 -14.26107,-16.74621 28.64537,-59.61337 10.0646,63.09727 -24.4489,13.26231 -17.35787,9.18946 -94.71798,35.3589 22.91521,8.31986 -44.13359,35.09603 -47.41969,-62.9037 -16.2582,-20.51628 38.32287,-10.0646 -55.05437,-14.01063 -27.78495,8.97834 -12.38719,28.64538 13.80943,7.01431 10.57785,5.37288 48.77457,-5.4194 -45.67777,70.06504 46.83906,53.03266 33.18434,50.32943 32.23551,-79.36191 25.24586,44.87308 45.59338,35.64365 -46.16164,39.00029 -35.9035,16.74206 29.80668,6.1936 37.16156,-3.4839 30.19378,39.09707 -27.48407,32.32282 -39.87127,-67.93599 -40.64547,67.93599 -14.70978,-40.83902 -6.96779,40.83902 H 152.19663 L 147.93853,696.48121 124.85978,644.14336 83.292866,772.1592 H 42.260303 l 27.930633,-76.07389 23.19094,-63.1645 29.008074,-9.98853 0.7742,-55.35526 -42.193884,48.77456 -19.020132,62.11862 -15.921956,-78.80647 25.729758,-122.07947 48.309414,-45.49212 -33.254774,57.39898 -15.05464,-11.90686 16.01266,57.61823 -41.742418,64.46124 34.942088,16.68785 15.01196,-56.92481 -8.21163,-24.22428 22.855694,-34.48882 -14.644064,58.7131 14.644064,-58.7131 3.17998,72.74016 -51.856136,105.01637 51.856136,-105.01637 34.04604,-71.91899 -37.22602,-0.82117 10.8633,-32.96184 10.57785,5.37288 3.19372,27.4521 45.58083,-32.8715 33.87122,0.38709 13.54849,62.51661 -46.2584,60.194 -58.83915,-23.22599 12.00008,-29.80667 16.45174,77.61349 32.64121,54.48928 11.29459,38.02753 -4.06454,21.67758 19.16144,1.74195 25.54857,-33.29057 -7.54844,-15.67754 -13.46117,-41.21963 -63.57166,-25.7486 -28.45182,-47.80682 24.14072,103.6647 48.2469,36.65893 -45.29065,8.12909 41.22611,13.54849 -29.22603,22.06469 6.5807,20.51628 41.80677,-40.83902 25.54857,-33.29057 -40.64547,9.87104 15.0969,23.41953 55.35525,-27.09697 6.09682,-22.93566 31.06474,19.45176 53.80686,-22.45178 -44.12936,9.29039 -40.74224,-6.29037 -56.91311,-40.15511 13.46117,41.21963 -44.39162,-12.47895 51.94006,28.15649 -7.54844,-15.67754 43.45194,-1.06452 0.56826,-74.64394 -0.27372,-111.13063 -24.97214,66.25755 -19.16144,-31.16152 6.77069,-88.33473 14.44768,44.91884 8.95545,-40.12873 11.80851,-7.10637 -0.22189,7.40484 13.42208,-6.87835 -0.78323,-6.0686 8.28113,-0.24818 -4.8608,-17.34948 9.63247,-1.85532 8.56996,-3.6191 12.04372,-6.43244 4.37953,-7.11675 24.22429,12.45431 -4.51639,-40.78442 10.46906,15.41138 5.26988,-16.77998 v 0 l -4.24267,-15.46522 14.37034,-0.27373 -3.11556,-23.62046 15.98043,6.37605 6.85843,-34.24723 9.67748,-10.83879 -11.61299,-44.12936 18.75393,-5.21832 18.79474,54.76708 207.08378,128.01917 -76.5638,-22.38583 -130.51998,-105.63334 -17.56299,23.10651 130.0174,82.25311 -56.11278,16.83384 9.99082,14.5072 47.86197,10.39722 -15.56291,59.67531 -53.923,12.45429 -10.39092,-8.98898 -71.31474,-35.90123 80.61079,11.22255 -9.29604,24.67868 -24.0979,-20.84658 -47.21685,-15.05465 98.93313,-5.17471 -18.32234,16.39726 55.01788,21.21337 14.01452,95.55166 24.44324,37.6135 9.85395,37.22603 -100.49123,69.35509 46.29452,-49.92091 -56.35911,42.75957 -47.92854,10.61598 -45.71137,-5.20069 -5.45762,-22.44768 -25.54858,22.06469 0.0758,32.32282 h 36.67859 l -36.75435,-32.32282 81.91828,32.32282 20.52907,-10.86333 22.19875,-26.49179 -23.03244,37.35512 98.90398,-43.35516 2.90324,-9.48395 -68.7102,22.64533 -33.29057,30.19378 h 65.80692 l 24.19373,-36.00027 -55.74235,36.00027 h 110.12986 l -10.45172,-99.48461 30.58088,36.58091 61.93596,62.9037 h 33.48411 l -17.22593,-48.19391 -13.54849,-42.96807 24.38729,-6.96779 31.35507,98.12977 -55.74236,-91.16198 -74.32314,-54.58104 54.90944,9.75316 -1.10258,-37.23724 2.467,-30.08577 -62.85455,-77.52794 53.80685,-40.25837 9.0477,117.78631 18.04928,112.15089 -0.40008,-73.94302 -26.69691,-155.99418 49.00514,11.74332 38.18405,130.83854 -21.76936,64.12936 1.10344,-24.30299 -17.51813,-170.66491 -57.14883,-39.33822 8.14368,27.5949 -54.94929,-17.83926 -36.19061,-11.74926 -9.89311,21.07233 46.08372,-9.32307 37.66085,-3.19868 -85.48459,-29.21651 11.63313,20.66593 -57.75509,10.67511 -45.04195,10.39722 35.05114,-24.90442 -16.01266,-0.82116 -19.03848,25.72558 -12.43942,-40.78024 31.4779,15.05466 -57.89197,-98.26579 -8.37268,-28.52591 -49.7423,-71.80698 7.93554,-33.87122 -32.32282,15.29042 0.38601,53.63124 24.00127,-35.05044 -1.74195,31.93571 -22.25932,3.11473 19.9258,44.39582 21.30141,31.07069 -18.96789,-78.58124 41.80677,50.71006 -11.80655,-109.93631 -28.25827,27.29054 -24.38728,-18.5808 -31.93572,-12.38718 -21.48404,-4.06454 -14.70979,-7.3549 -22.63346,-5.22578 -18.06557,50.09091 29.56185,-4.37954 -8.48535,-13.95976 -21.0765,18.3393 -18.33929,1.09488 9.47934,-46.29448 0.46718,-8.499 16.18834,-10.26725 11.80654,6.71353 -1.53654,7.16141 10.05273,-11.22596 50.1294,-22.83888 29.61313,-12.77429 -36.96802,24.96793 29.03247,-0.96775 16.95351,17.22765 14.5072,-26.55092 -31.46071,9.32327 7.93555,-24.00018 23.52516,14.67691 9.76541,45.9042 -64.25854,2.90324 -23.61308,-21.09693 16.83883,-9.87104 18.58078,7.54844 -35.41961,2.3226 18.19368,10.25814 17.22593,-12.58074 -11.80653,23.41953 27.96795,-15.29043 -16.16142,-8.1291 28.1794,1.16301 -0.21144,17.80485 -11.80654,-10.83876 12.01798,-6.96609 14.5072,-26.55092 26.99134,-27.64477 -38.76135,-25.593908 -11.75515,38.561768 -9.26476,-7.91564 -14.92897,-2.63285 -5.4194,23.32278 -0.48387,-34.25834 41.85215,-17.077718 37.8419,-24.29273 0.91945,49.886638 33.58089,-34.355088 3.86436,24.408518 5.61959,35.49516 -13.12227,8.9392 8.75907,11.63314 22.99256,-28.05639 14.23348,1.77919 8.62221,8.75907 -22.85569,-10.53826 -18.47617,7.52733 -17.52842,-11.78025 4.3214,20.47088 -30.01101,-34.2825 -2.49334,46.94209 31.88847,40.92126 -12.31743,25.04545 14.64406,16.97069 6.37219,-4.9273 28.39036,-22.0342 18.06558,-74.31519 -9.58023,1.91604 -8.48535,72.39915 -21.62395,-0.88959 -6.76641,22.92379 -6.37219,-17.10722 -6.84302,-9.16965 31.67217,-9.4627 -2.45246,-27.35275 16.62854,-15.1915 -14.17608,42.54425 -11.69055,12.81578 -13.1386,5.81657 -14.64406,5.06383 -6.84302,-50.0909 19.77633,-28.5354 -7.17214,40.62129 12.21021,-22.15531 3.65256,-6.62755 19.9132,-19.36575 16.35482,3.76366 -4.24267,16.14953 -10.88041,-2.53192 -24.7975,8.61203 19.04937,9.11139 -18.40774,3.07936 20.8602,24.27339 -33.71204,-14.30883 -12.60419,-11.90331 -12.72802,-16.05839 -19.29732,-24.22429 -16.97069,-48.311708 3.96895,-22.10296 33.87295,-2.18977 34.50034,15.53155 -20.88273,-27.30154 -13.61761,11.76999 -37.02074,-41.26341 50.63835,29.49342 -61.65545,-15.1916 -37.97892,-20.18681 8.8753,38.53819 -42.81668,-16.22995 67.81382,9.7861 52.14432,15.05406 -48.03784,-26.96159 11.0171,-14.30182 -48.99602,-5.88499 -33.94138,22.30824 -28.05638,-0.13686 61.99776,-22.17138 33.87244,32.09434 18.27137,17.31226 -23.04177,2.2607 -13.22623,1.29767 -9.5531,35.553878 -49.64553,57.09722 -10.73704,-37.35951 20.11848,-85.948318 25.18231,25.04545 24.63488,5.61128 -69.93567,55.291588 60.38257,-19.73771 5.90327,10.93556 35.94888,-28.013278 -19.07282,-19.77383 -20.22674,-13.12911 -17.63437,8.8155 -45.30079,60.902868 h -19.16046 l 39.27894,-85.948318 -52.8687,22.33088 -14.5777,7.39558 -4.81284,17.86942 -4.96143,18.421178 28.25828,58.25851 9.68345,-38.32725 8.31669,25.97611 10.84377,-25.97611 10.73704,37.35951 -21.58081,-11.3834 -18.00013,12.35114 -35.32285,-15.29044 12.96784,-30.00023 32.03847,6.96342 -11.2116,-52.371598 -2.37817,-11.24584 24.81231,-22.46774 -22.43415,33.71358 -21.76871,14.01916 0.94184,31.389018 -28.64537,22.35501 22.74211,-35.32285 -7.06457,42.96807 -15.67753,-7.64522 4.93551,25.11309 22.93567,-5.41941 -27.87118,-19.69368 20.17757,44.51646 19.08761,10.36977 14.3379,-16.80104 0.46718,-8.499 -15.58563,-6.7224 -11.33784,6.82951 11.90189,8.67795 15.02158,-8.78506 -26.92347,0.10708 -6.96922,14.82317 -14.37108,18.33884 10.17154,28.36582 8.91681,4.10736 0.65373,-20.8118 13.71661,-19.63045 -33.45869,7.96907 19.74208,11.66138 -9.57054,16.70444 14.55445,22.44101 -11.04363,65.56178 5.98865,5.93623 -4.7569,31.9741 11.76999,1.09488 -1.3686,39.00522 -33.5308,28.46697 32.43592,-8.89593 12.31743,-52.5544 -8.6222,-24.22429 -13.00174,17.10755 18.20243,-45.16394 2.32663,-20.25534 -15.77216,33.44518 7.42597,-39.1268 8.34619,5.68162 19.28306,0.41522 24.87113,-0.58066 15.14528,0.38708 21.5808,-0.96774 14.78514,-1.03308 21.48708,12.79645 1.02646,-14.43878 -44.75336,-23.26626 -30.57784,-3.18759 -11.75817,6.00006 -12.19364,-5.08069 -18.41694,5.27912 -8.82519,17.99525 8.34618,5.68162 7.65464,-9.41747 18.55412,-3.92644 12.4543,-0.41058 h 16.56011 l 19.0236,1.64233 21.41865,10.33298 -14.78514,1.03308 -6.63351,-11.36606 -0.82117,-14.57561 1.26109,-35.18404 43.49227,58.4503 7.26008,7.0473 12.34489,11.98306 12.56983,-7.07048 10.71471,23.99965 13.70227,30.69151 -14.37034,0.27372 0.66807,-30.96523 -23.28452,-16.92917 26.85912,63.35963 -5.26986,16.77998 -21.58926,-80.13961 -12.3449,-11.98306 0.73192,59.69309 22.73318,17.0182 -11.12019,-64.72823 -20.22087,-58.58303 12.86489,7.11674 -24.36115,-36.81545 -29.44461,-33.26751 21.233,56.67064 -23.16852,-12.60203 v 1e-5 l -2.9937,-10.88869 -20.91776,-0.0493 20.91776,0.0493 -1.74827,-9.47011 -8.51618,-6.48392 -19.13867,1.94505 7.62246,-11.81609 -17.90337,-1.06452 29.90343,-13.64523 8.03233,31.06471 1.74827,9.47011 2.9937,10.88868 -31.83895,31.99644 -6.67747,-17.51626 38.51642,-14.48018 -46.90402,13.56007 -24.63488,-11.22255 -0.27372,-7.801 -19.2289,10.94881 8.62222,11.08567 10.8804,-14.23348 -2.66878,35.85742 25.72976,10.33297 -6.92572,13.75911 -14.83509,50.6337 26.07191,-44.47963 10.53825,0.27372 -4.30719,234.63856 -6.23106,-234.91228 -16.7654,103.39804 -9.30651,-58.91841 -6.50378,97.0448 6.87102,-7.9602 -0.36724,-89.0846 -11.97528,-2.73718 26.81037,-47.89652 -5.52858,109.55211 -2.64892,47.41679 -21.77432,21.19375 26.81829,-6.95492 -5.04397,-14.23883 5.04397,14.23883 7.05292,7.342 7.31743,-172.39566 10.53825,0.27372 7.30578,5.76582 -4.84228,140.53801 5.74811,53.37551 8.69957,-8.45667 -9.6054,-185.45685 6.44868,9.83627 3.15672,175.62058 8.95545,-40.12873 -1.62524,-34.2305 14.32268,-78.96834 1.93551,26.226 -2.82445,79.86646 -0.22188,7.40484 13.42207,-6.87835 -0.78321,-6.0686 -9.59251,-74.32435 13.01285,56.7267 9.63247,-1.85532 -1.64517,-68.61342 10.21513,64.99432 6.13983,-73.60729 -39.29062,-3.87099 -7.45166,-22.16146 46.74228,26.03245 -38.03254,-49.3552 -21.5808,0.96774 12.87106,22.35501 -17.35795,-0.13155 24.80961,22.29301 24.58083,81.09738 2.59616,8.17703 7.88265,-2.93316 10.13486,-15.29542 1.35426,-52.46505 3.02528,45.34831 13.32075,-11.49127 -4.73304,-81.56707 -7.35598,-51.46629 31.93682,-68.92166 14.73258,-26.60688 28.18295,-33.13047 11.75564,-23.75819 12.8761,-8.485228 -3.23356,-18.98768 -18.45777,-26.29576 -16.30029,-13.98016 -43.56245,-25.2716698 -12.68325,-2.2431 -42.05663,-4.92710001 -11.11202,3.15347001 -56.02565,20.1183398 -10.23477,8.29072 -16.94711,15.30837 -14.40238,7.52508 -6.15306,10.66256 -8.3507,30.98966 -25.82164,47.631518 21.09354,34.56171 -11.19261,14.54783 0.7649,14.83098 11.42636,28.99448 9.91596,16.47866 -10.29018,61.29849 4.86923,11.75503 -3.6995,27.05345 11.2867,13.64327 -0.73135,20.86693 -27.15395,23.05243 -26.7113,8.7997 -9.8346,8.23017 -42.831006,40.45577 -4.142677,11.27356 -24.720039,117.53408 1.723981,12.70492 13.146905,65.06967 -31.42785,44.30525 -5.131669,14.03787 -11.77572969,35.06839 v 13.27388 L 13.729123,772.1592 h 86.060903 l 34.524004,-87.48453 17.88258,87.48453 h 567.48814 l 13.45791,4.98007 v -10.82282 l -16.34111,-107.33869 21.01021,-62.14104 -1.56841,-11.8931 -36.96849,-126.54119 -264.89117,-171.18029 -9.62513,-46.10485 22.95192,-17.93513 4.83288,-10.99588 16.78856,-69.30484 -4.72151,-13.12013 -20.7354,-15.07722 -18.21617,3.33368 -4.23602,-25.650188"
    id="source_path-8"
    sodipodi:nodetypes="cccccccccccccccccccccccccccccccccccccccccccccccccccccccccccccccccccccccccccccccccccccccccccccccccccccccccccccccccccccccccccccccccccccccccccccccccccccccccccccccccccccccccccccccccccccccccccccccccccccccccccccccccccccccccccccccccccccccccccccccccccccccccccccccccccccccccccccccccccccccccccccccccccccccccccccccccccccccccccccccccccccccccccccccccccccccccccccccccccccccccccccccccccccccccccccccccccccccccccccccccccccccccccccccccccccccccccccccccccccccccccccccccccccccccccccccccccccccccccccccccccccccccccccccccccccccccccccccccccccccccccccccccccccccccccccccccccccccccccccccccccccccccccccccccccccccccccccccccccccccccccccccccccccccccccccccccccccccccccccccccccccccccccccccccccccccccccccccccccccccccccccccccccccccccc" />
  <g id="lines_group" style="fill:none;stroke:#000000;strokeWidth:1pt" transform="translate(4.4243333,826.97616)">
    <line x1="9.3047895" y1="-54.816963" x2="24.359432" y2="-100.44283" id="line_1" />
    <line x1="24.359432" y1="-100.44283" x2="57.525803" y2="-148.50597" id="line_2" />
    <line x1="57.525803" y1="-148.50597" x2="88.957542" y2="-194.05534" id="line_3" />
    <line x1="88.957542" y1="-194.05534" x2="65.766602" y2="-130.89085" id="line_4" />
    <line x1="65.766602" y1="-130.89085" x2="120.43544" y2="-182.83279" id="line_5" />
    <line x1="120.43544" y1="-182.83279" x2="142.88052" y2="-155.73444" id="line_6" />
    <line x1="142.88052" y1="-155.73444" x2="179.83284" y2="-157.10304" id="line_7" />
    <line x1="179.83284" y1="-157.10304" x2="210.76329" y2="-185.84372" id="line_8" />
    <line x1="210.76329" y1="-185.84372" x2="268.24466" y2="-220.33255" id="line_9" />
    <line x1="268.24466" y1="-220.33255" x2="284.3942" y2="-260.84323" id="line_10" />
    <line x1="284.3942" y1="-260.84323" x2="267.97095" y2="-331.46317" id="line_11" />
    <line x1="267.97095" y1="-331.46317" x2="339.77371" y2="-375.14194" id="line_12" />
    <line x1="339.77371" y1="-375.14194" x2="380.19647" y2="-357.19293" id="line_13" />
    <line x1="380.19647" y1="-357.19293" x2="439.25833" y2="-287.27032" id="line_14" />
    <line x1="439.25833" y1="-287.27032" x2="359.8309" y2="-233.58456" id="line_15" />
    <line x1="359.8309" y1="-233.58456" x2="313.83804" y2="-184.6889" id="line_16" />
    <line x1="359.8309" y1="-233.58456" x2="300.0618" y2="-289.15891" id="line_17" />
    <line x1="300.0618" y1="-289.15891" x2="380.19647" y2="-357.19293" id="line_18" />
    <line x1="380.19647" y1="-357.19293" x2="267.97095" y2="-331.46317" id="line_19" />
    <line x1="267.97095" y1="-331.46317" x2="300.0618" y2="-289.15891" id="line_20" />
    <line x1="300.0618" y1="-289.15891" x2="284.3942" y2="-260.84323" id="line_21" />
    <line x1="284.3942" y1="-260.84323" x2="313.83804" y2="-184.6889" id="line_22" />
    <line x1="313.83804" y1="-184.6889" x2="352.548" y2="-148.68863" id="line_23" />
    <line x1="352.548" y1="-148.68863" x2="352.548" y2="-148.68863" id="line_24" />
    <line x1="352.548" y1="-148.68863" x2="402.60709" y2="-217.08681" id="line_25" />
    <line x1="402.60709" y1="-217.08681" x2="439.25833" y2="-287.27032" id="line_26" />
    <line x1="439.25833" y1="-287.27032" x2="429.66907" y2="-156.42973" id="line_27" />
    <line x1="429.66907" y1="-156.42973" x2="506.98627" y2="-210.74506" id="line_28" />
    <line x1="506.98627" y1="-210.74506" x2="464.03271" y2="-256.30234" id="line_29" />
    <line x1="464.03271" y1="-256.30234" x2="420.51065" y2="-145.75684" id="line_30" />
    <line x1="420.51065" y1="-145.75684" x2="352.548" y2="-148.68863" id="line_31" />
    <line x1="352.548" y1="-148.68863" x2="354.48349" y2="-109.20447" id="line_32" />
    <line x1="354.48349" y1="-109.20447" x2="453.58102" y2="-92.172081" id="line_33" />
    <line x1="453.58102" y1="-92.172081" x2="462.42365" y2="-103.97617" id="line_34" />
    <line x1="462.42365" y1="-103.97617" x2="408.11652" y2="-113.06069" id="line_35" />
    <line x1="408.11652" y1="-113.06069" x2="420.25912" y2="-125.85595" id="line_36" />
    <line x1="420.25912" y1="-125.85595" x2="535.64618" y2="-201.72128" id="line_37" />
    <line x1="535.64618" y1="-201.72128" x2="446.96765" y2="-125.58425" id="line_38" />
    <line x1="446.96765" y1="-125.58425" x2="462.42365" y2="-103.97617" id="line_39" />
    <line x1="462.42365" y1="-103.97617" x2="470.44168" y2="-124.0429" id="line_40" />
    <line x1="470.44168" y1="-124.0429" x2="535.64618" y2="-201.72128" id="line_41" />
    <line x1="535.64618" y1="-201.72128" x2="464.03271" y2="-256.30234" id="line_42" />
    <line x1="464.03271" y1="-256.30234" x2="439.25833" y2="-287.27032" id="line_43" />
    <line x1="439.25833" y1="-287.27032" x2="529.83966" y2="-229.20535" id="line_44" />
    <line x1="529.83966" y1="-229.20535" x2="585.19489" y2="-200.55998" id="line_45" />
    <line x1="585.19489" y1="-200.55998" x2="515.82513" y2="-324.75702" id="line_46" />
    <line x1="515.82513" y1="-324.75702" x2="639.00177" y2="-228.04407" id="line_47" />
    <line x1="639.00177" y1="-228.04407" x2="585.19489" y2="-200.55998" id="line_48" />
    <line x1="585.19489" y1="-200.55998" x2="673.06653" y2="-103.01087" id="line_49" />
    <line x1="673.06653" y1="-103.01087" x2="656.80835" y2="-54.816963" id="line_50" />
    <line x1="656.80835" y1="-54.816963" x2="607.64667" y2="-54.816963" id="line_51" />
    <line x1="607.64667" y1="-54.816963" x2="582.60822" y2="-178.50864" id="line_52" />
    <line x1="582.60822" y1="-178.50864" x2="554.2829" y2="-191.59186" id="line_53" />
    <line x1="582.60822" y1="-178.50864" x2="673.06653" y2="-103.01087" id="line_54" />
    <line x1="673.06653" y1="-103.01087" x2="715.26038" y2="-54.816963" id="line_55" />
    <line x1="715.26038" y1="-54.816963" x2="697.84088" y2="-169.20493" id="line_56" />
    <line x1="697.84088" y1="-169.20493" x2="683.39923" y2="-191.04698" id="line_57" />
    <line x1="683.39923" y1="-191.04698" x2="632.42108" y2="-375.91614" id="line_58" />
    <line x1="632.42108" y1="-375.91614" x2="531.38806" y2="-384.43234" id="line_59" />
    <line x1="531.38806" y1="-384.43234" x2="578.61426" y2="-335.65778" id="line_60" />
    <line x1="578.61426" y1="-335.65778" x2="515.82513" y2="-324.75702" id="line_61" />
    <line x1="515.82513" y1="-324.75702" x2="479.12961" y2="-362.36765" id="line_62" />
    <line x1="479.12961" y1="-362.36765" x2="531.38806" y2="-384.43234" id="line_63" />
    <line x1="531.38806" y1="-384.43234" x2="438.48413" y2="-384.43234" id="line_64" />
    <line x1="438.48413" y1="-384.43234" x2="399.63062" y2="-508.42371" id="line_65" />
    <line x1="399.63062" y1="-508.42371" x2="371.51587" y2="-460.69098" id="line_66" />
    <line x1="371.51587" y1="-460.69098" x2="438.48413" y2="-384.43234" id="line_67" />
    <line x1="438.48413" y1="-384.43234" x2="380.19647" y2="-357.19293" id="line_68" />
    <line x1="380.19647" y1="-357.19293" x2="357.13156" y2="-384.33139" id="line_69" />
    <line x1="357.13156" y1="-384.33139" x2="342.87051" y2="-401.07761" id="line_70" />
    <line x1="342.87051" y1="-401.07761" x2="371.51587" y2="-460.69098" id="line_71" />
    <line x1="371.51587" y1="-460.69098" x2="381.58047" y2="-397.59372" id="line_72" />
    <line x1="381.58047" y1="-397.59372" x2="357.13156" y2="-384.33139" id="line_73" />
    <line x1="357.13156" y1="-384.33139" x2="339.77371" y2="-375.14194" id="line_74" />
    <line x1="339.77371" y1="-375.14194" x2="245.05573" y2="-339.78305" id="line_75" />
    <line x1="245.05573" y1="-339.78305" x2="267.97092" y2="-331.46317" id="line_76" />
    <line x1="267.97092" y1="-331.46317" x2="223.83734" y2="-296.36716" id="line_77" />
    <line x1="223.83734" y1="-296.36716" x2="176.41765" y2="-359.27084" id="line_78" />
    <line x1="176.41765" y1="-359.27084" x2="160.15945" y2="-379.78714" id="line_79" />
    <line x1="160.15945" y1="-379.78714" x2="198.48232" y2="-389.85172" id="line_80" />
    <line x1="198.48232" y1="-389.85172" x2="143.42795" y2="-403.86237" id="line_81" />
    <line x1="143.42795" y1="-403.86237" x2="115.643" y2="-394.88403" id="line_82" />
    <line x1="115.643" y1="-394.88403" x2="103.25581" y2="-366.23865" id="line_83" />
    <line x1="103.25581" y1="-366.23865" x2="117.06524" y2="-359.22433" id="line_84" />
    <line x1="117.06524" y1="-359.22433" x2="127.64309" y2="-353.85144" id="line_85" />
    <line x1="127.64309" y1="-353.85144" x2="176.41766" y2="-359.27084" id="line_86" />
    <line x1="176.41766" y1="-359.27084" x2="130.73988" y2="-289.20581" id="line_87" />
    <line x1="130.73988" y1="-289.20581" x2="177.57895" y2="-236.17316" id="line_88" />
    <line x1="177.57895" y1="-236.17316" x2="210.76329" y2="-185.84372" id="line_89" />
    <line x1="210.76329" y1="-185.84372" x2="242.99879" y2="-265.20563" id="line_90" />
    <line x1="242.99879" y1="-265.20563" x2="268.24466" y2="-220.33255" id="line_91" />
    <line x1="268.24466" y1="-220.33255" x2="313.83804" y2="-184.6889" id="line_92" />
    <line x1="313.83804" y1="-184.6889" x2="267.67639" y2="-145.68861" id="line_93" />
    <line x1="267.67639" y1="-145.68861" x2="231.7729" y2="-128.94655" id="line_94" />
    <line x1="231.7729" y1="-128.94655" x2="261.57959" y2="-122.75295" id="line_95" />
    <line x1="261.57959" y1="-122.75295" x2="298.74115" y2="-126.23685" id="line_96" />
    <line x1="298.74115" y1="-126.23685" x2="328.93491" y2="-87.139786" id="line_97" />
    <line x1="328.93491" y1="-87.139786" x2="301.45084" y2="-54.816963" id="line_98" />
    <line x1="301.45084" y1="-54.816963" x2="261.57959" y2="-122.75295" id="line_99" />
    <line x1="261.57959" y1="-122.75295" x2="220.93411" y2="-54.816963" id="line_100" />
    <line x1="220.93411" y1="-54.816963" x2="206.22433" y2="-95.655983" id="line_101" />
    <line x1="206.22433" y1="-95.655983" x2="199.25655" y2="-54.816963" id="line_102" />
    <line x1="199.25655" y1="-54.816963" x2="147.77229" y2="-54.816963" id="line_103" />
    <line x1="147.77229" y1="-54.816963" x2="143.51419" y2="-130.49495" id="line_104" />
    <line x1="143.51419" y1="-130.49495" x2="120.43544" y2="-182.83279" id="line_105" />
    <line x1="120.43544" y1="-182.83279" x2="78.86853" y2="-54.816963" id="line_106" />
    <line x1="78.86853" y1="-54.816963" x2="37.835972" y2="-54.816963" id="line_107" />
    <line x1="37.835972" y1="-54.816963" x2="65.766602" y2="-130.89085" id="line_108" />
    <line x1="88.957542" y1="-194.05534" x2="117.96561" y2="-204.04388" id="line_109" />
    <line x1="117.96561" y1="-204.04388" x2="118.73981" y2="-259.39914" id="line_110" />
    <line x1="118.73981" y1="-259.39914" x2="76.545929" y2="-210.62457" id="line_111" />
    <line x1="76.545929" y1="-210.62457" x2="57.525803" y2="-148.50597" id="line_112" />
    <line x1="57.525803" y1="-148.50597" x2="41.603844" y2="-227.31242" id="line_113" />
    <line x1="41.603844" y1="-227.31242" x2="67.333595" y2="-349.39191" id="line_114" />
    <line x1="67.333595" y1="-349.39191" x2="115.64301" y2="-394.88403" id="line_115" />
    <line x1="115.64301" y1="-394.88403" x2="82.388237" y2="-337.48505" id="line_116" />
    <line x1="82.388237" y1="-337.48505" x2="67.333595" y2="-349.39191" id="line_117" />
    <line x1="67.333595" y1="-349.39191" x2="83.34626" y2="-291.77368" id="line_118" />
    <line x1="83.34626" y1="-291.77368" x2="41.603844" y2="-227.31242" id="line_119" />
    <line x1="41.603844" y1="-227.31242" x2="76.545929" y2="-210.62457" id="line_120" />
    <line x1="76.545929" y1="-210.62457" x2="91.557892" y2="-267.54938" id="line_121" />
    <line x1="91.557892" y1="-267.54938" x2="83.34626" y2="-291.77368" id="line_122" />
    <line x1="83.34626" y1="-291.77368" x2="106.20195" y2="-326.26248" id="line_123" />
    <line x1="106.20195" y1="-326.26248" x2="91.557892" y2="-267.54938" id="line_124" />
    <line x1="106.20195" y1="-326.26248" x2="109.38193" y2="-253.52232" id="line_125" />
    <line x1="109.38193" y1="-253.52232" x2="57.525803" y2="-148.50597" id="line_126" />
    <line x1="109.38193" y1="-253.52232" x2="143.42796" y2="-325.44131" id="line_127" />
    <line x1="143.42796" y1="-325.44131" x2="106.20195" y2="-326.26248" id="line_128" />
    <line x1="106.20195" y1="-326.26248" x2="117.06525" y2="-359.22433" id="line_129" />
    <line x1="127.6431" y1="-353.85144" x2="130.83682" y2="-326.39935" id="line_130" />
    <line x1="130.83682" y1="-326.39935" x2="176.41766" y2="-359.27084" id="line_131" />
    <line x1="176.41766" y1="-359.27084" x2="210.28888" y2="-358.88376" id="line_132" />
    <line x1="210.28888" y1="-358.88376" x2="223.83737" y2="-296.36716" id="line_133" />
    <line x1="223.83737" y1="-296.36716" x2="177.57896" y2="-236.17316" id="line_134" />
    <line x1="177.57896" y1="-236.17316" x2="118.73981" y2="-259.39914" id="line_135" />
    <line x1="118.73981" y1="-259.39914" x2="130.7399" y2="-289.20581" id="line_136" />
    <line x1="130.7399" y1="-289.20581" x2="147.19164" y2="-211.59232" id="line_137" />
    <line x1="147.19164" y1="-211.59232" x2="179.83286" y2="-157.10304" id="line_138" />
    <line x1="179.83286" y1="-157.10304" x2="191.12744" y2="-119.07551" id="line_139" />
    <line x1="191.12744" y1="-119.07551" x2="187.0629" y2="-97.397934" id="line_140" />
    <line x1="187.0629" y1="-97.397934" x2="206.22433" y2="-95.655983" id="line_141" />
    <line x1="206.22433" y1="-95.655983" x2="231.7729" y2="-128.94655" id="line_142" />
    <line x1="231.7729" y1="-128.94655" x2="224.22447" y2="-144.62408" id="line_143" />
    <line x1="224.22447" y1="-144.62408" x2="210.76331" y2="-185.84372" id="line_144" />
    <line x1="210.76331" y1="-185.84372" x2="147.19164" y2="-211.59232" id="line_145" />
    <line x1="147.19164" y1="-211.59232" x2="118.73981" y2="-259.39914" id="line_146" />
    <line x1="118.73981" y1="-259.39914" x2="142.88054" y2="-155.73444" id="line_147" />
    <line x1="142.88054" y1="-155.73444" x2="191.12744" y2="-119.07551" id="line_148" />
    <line x1="191.12744" y1="-119.07551" x2="145.83679" y2="-110.94642" id="line_149" />
    <line x1="145.83679" y1="-110.94642" x2="187.0629" y2="-97.397934" id="line_150" />
    <line x1="187.0629" y1="-97.397934" x2="157.83687" y2="-75.333244" id="line_151" />
    <line x1="157.83687" y1="-75.333244" x2="164.41757" y2="-54.816963" id="line_152" />
    <line x1="164.41757" y1="-54.816963" x2="206.22433" y2="-95.655983" id="line_153" />
    <line x1="231.7729" y1="-128.94655" x2="191.12744" y2="-119.07551" id="line_154" />
    <line x1="191.12744" y1="-119.07551" x2="206.22433" y2="-95.655983" id="line_155" />
    <line x1="206.22433" y1="-95.655983" x2="261.57959" y2="-122.75295" id="line_156" />
    <line x1="261.57959" y1="-122.75295" x2="267.67642" y2="-145.68861" id="line_157" />
    <line x1="267.67642" y1="-145.68861" x2="298.74115" y2="-126.23685" id="line_158" />
    <line x1="298.74115" y1="-126.23685" x2="352.548" y2="-148.68863" id="line_159" />
    <line x1="352.548" y1="-148.68863" x2="308.41864" y2="-139.39824" id="line_160" />
    <line x1="308.41864" y1="-139.39824" x2="267.67642" y2="-145.68861" id="line_161" />
    <line x1="267.67642" y1="-145.68861" x2="210.76331" y2="-185.84372" id="line_162" />
    <line x1="224.22447" y1="-144.62408" x2="179.83286" y2="-157.10304" id="line_163" />
    <line x1="179.83286" y1="-157.10304" x2="231.7729" y2="-128.94655" id="line_164" />
    <line x1="224.22447" y1="-144.62408" x2="267.67642" y2="-145.68861" id="line_165" />
    <line x1="267.67642" y1="-145.68861" x2="268.24466" y2="-220.33255" id="line_166" />
    <line x1="268.24466" y1="-220.33255" x2="267.97095" y2="-331.46317" id="line_167" />
    <line x1="267.97095" y1="-331.46317" x2="242.99881" y2="-265.20563" id="line_168" />
    <line x1="242.99881" y1="-265.20563" x2="223.83737" y2="-296.36716" id="line_169" />
    <line x1="223.83737" y1="-296.36716" x2="230.60806" y2="-384.70187" id="line_170" />
    <line x1="230.60806" y1="-384.70187" x2="245.05574" y2="-339.78305" id="line_171" />
    <line x1="245.05574" y1="-339.78305" x2="254.01118" y2="-379.91177" id="line_172" />
    <line x1="254.01118" y1="-379.91177" x2="265.8197" y2="-387.01813" id="line_173" />
    <line x1="265.8197" y1="-387.01813" x2="265.59781" y2="-379.61331" id="line_174" />
    <line x1="265.59781" y1="-379.61331" x2="279.0199" y2="-386.49164" id="line_175" />
    <line x1="279.0199" y1="-386.49164" x2="278.23666" y2="-392.56024" id="line_176" />
    <line x1="278.23666" y1="-392.56024" x2="286.51779" y2="-392.80844" id="line_177" />
    <line x1="286.51779" y1="-392.80844" x2="281.65698" y2="-410.1579" id="line_178" />
    <line x1="281.65698" y1="-410.1579" x2="291.28946" y2="-412.01324" id="line_179" />
    <line x1="291.28946" y1="-412.01324" x2="299.85941" y2="-415.63232" id="line_180" />
    <line x1="299.85941" y1="-415.63232" x2="311.90314" y2="-422.06476" id="line_181" />
    <line x1="311.90314" y1="-422.06476" x2="316.28268" y2="-429.18152" id="line_182" />
    <line x1="316.28268" y1="-429.18152" x2="340.50696" y2="-416.7272" id="line_183" />
    <line x1="340.50696" y1="-416.7272" x2="335.99057" y2="-457.51163" id="line_184" />
    <line x1="335.99057" y1="-457.51163" x2="346.45963" y2="-442.10025" id="line_185" />
    <line x1="346.45963" y1="-442.10025" x2="351.72949" y2="-458.88022" id="line_186" />
    <line x1="351.72949" y1="-458.88022" x2="351.72949" y2="-458.88022" id="line_187" />
    <line x1="351.72949" y1="-458.88022" x2="347.48682" y2="-474.34546" id="line_188" />
    <line x1="347.48682" y1="-474.34546" x2="361.85718" y2="-474.61917" id="line_189" />
    <line x1="361.85718" y1="-474.61917" x2="358.74161" y2="-498.23965" id="line_190" />
    <line x1="358.74161" y1="-498.23965" x2="374.72205" y2="-491.86359" id="line_191" />
    <line x1="374.72205" y1="-491.86359" x2="381.58047" y2="-526.11084" id="line_192" />
    <line x1="381.58047" y1="-526.11084" x2="391.25797" y2="-536.94958" id="line_193" />
    <line x1="391.25797" y1="-536.94958" x2="379.64496" y2="-581.07898" id="line_194" />
    <line x1="379.64496" y1="-581.07898" x2="398.3989" y2="-586.2973" id="line_195" />
    <line x1="398.3989" y1="-586.2973" x2="417.19363" y2="-531.53021" id="line_196" />
    <line x1="417.19363" y1="-531.53021" x2="624.2774" y2="-403.51105" id="line_197" />
    <line x1="624.2774" y1="-403.51105" x2="547.71362" y2="-425.89688" id="line_198" />
    <line x1="547.71362" y1="-425.89688" x2="417.19363" y2="-531.53021" id="line_199" />
    <line x1="417.19363" y1="-531.53021" x2="399.63065" y2="-508.42371" id="line_200" />
    <line x1="399.63065" y1="-508.42371" x2="529.64801" y2="-426.17059" id="line_201" />
    <line x1="529.64801" y1="-426.17059" x2="473.53528" y2="-409.33676" id="line_202" />
    <line x1="473.53528" y1="-409.33676" x2="483.52609" y2="-394.82956" id="line_203" />
    <line x1="483.52609" y1="-394.82956" x2="531.38806" y2="-384.43234" id="line_204" />
    <line x1="531.38806" y1="-384.43234" x2="515.82513" y2="-324.75702" id="line_205" />
    <line x1="515.82513" y1="-324.75702" x2="461.90213" y2="-312.30273" id="line_206" />
    <line x1="461.90213" y1="-312.30273" x2="451.51123" y2="-321.29172" id="line_207" />
    <line x1="451.51123" y1="-321.29172" x2="380.19647" y2="-357.19293" id="line_208" />
    <line x1="380.19647" y1="-357.19293" x2="460.80728" y2="-345.9704" id="line_209" />
    <line x1="460.80728" y1="-345.9704" x2="451.51123" y2="-321.29172" id="line_210" />
    <line x1="451.51123" y1="-321.29172" x2="427.41333" y2="-342.13828" id="line_211" />
    <line x1="427.41333" y1="-342.13828" x2="380.19647" y2="-357.19293" id="line_212" />
    <line x1="380.19647" y1="-357.19293" x2="479.12961" y2="-362.36765" id="line_213" />
    <line x1="479.12961" y1="-362.36765" x2="460.80728" y2="-345.9704" id="line_214" />
    <line x1="460.80728" y1="-345.9704" x2="515.82513" y2="-324.75702" id="line_215" />
    <line x1="515.82513" y1="-324.75702" x2="529.83966" y2="-229.20535" id="line_216" />
    <line x1="529.83966" y1="-229.20535" x2="554.2829" y2="-191.59186" id="line_217" />
    <line x1="554.2829" y1="-191.59186" x2="564.13684" y2="-154.36583" id="line_218" />
    <line x1="564.13684" y1="-154.36583" x2="463.64563" y2="-85.010742" id="line_219" />
    <line x1="463.64563" y1="-85.010742" x2="509.94016" y2="-134.93166" id="line_220" />
    <line x1="509.94016" y1="-134.93166" x2="453.58105" y2="-92.172081" id="line_221" />
    <line x1="453.58105" y1="-92.172081" x2="405.6525" y2="-81.556107" id="line_222" />
    <line x1="405.6525" y1="-81.556107" x2="359.94113" y2="-86.756798" id="line_223" />
    <line x1="359.94113" y1="-86.756798" x2="354.48352" y2="-109.20447" id="line_224" />
    <line x1="354.48352" y1="-109.20447" x2="328.93494" y2="-87.139786" id="line_225" />
    <line x1="328.93494" y1="-87.139786" x2="329.01074" y2="-54.816963" id="line_226" />
    <line x1="329.01074" y1="-54.816963" x2="365.68933" y2="-54.816963" id="line_227" />
    <line x1="365.68933" y1="-54.816963" x2="328.93497" y2="-87.139786" id="line_228" />
    <line x1="328.93497" y1="-87.139786" x2="410.85324" y2="-54.816963" id="line_229" />
    <line x1="410.85324" y1="-54.816963" x2="431.38232" y2="-65.68029" id="line_230" />
    <line x1="431.38232" y1="-65.68029" x2="453.58109" y2="-92.172081" id="line_231" />
    <line x1="453.58109" y1="-92.172081" x2="430.54865" y2="-54.816963" id="line_232" />
    <line x1="430.54865" y1="-54.816963" x2="529.45264" y2="-98.172127" id="line_233" />
    <line x1="529.45264" y1="-98.172127" x2="532.35583" y2="-107.65607" id="line_234" />
    <line x1="532.35583" y1="-107.65607" x2="463.64566" y2="-85.010742" id="line_235" />
    <line x1="463.64566" y1="-85.010742" x2="430.3551" y2="-54.816963" id="line_236" />
    <line x1="430.3551" y1="-54.816963" x2="496.16202" y2="-54.816963" id="line_237" />
    <line x1="496.16202" y1="-54.816963" x2="520.35571" y2="-90.81723" id="line_238" />
    <line x1="520.35571" y1="-90.81723" x2="464.6134" y2="-54.816963" id="line_239" />
    <line x1="464.6134" y1="-54.816963" x2="574.74323" y2="-54.816963" id="line_240" />
    <line x1="574.74323" y1="-54.816963" x2="564.2915" y2="-154.30157" id="line_241" />
    <line x1="564.2915" y1="-154.30157" x2="594.87244" y2="-117.72066" id="line_242" />
    <line x1="594.87244" y1="-117.72066" x2="656.80835" y2="-54.816963" id="line_243" />
    <line x1="656.80835" y1="-54.816963" x2="690.29248" y2="-54.816963" id="line_244" />
    <line x1="690.29248" y1="-54.816963" x2="673.06653" y2="-103.01087" id="line_245" />
    <line x1="673.06653" y1="-103.01087" x2="659.51807" y2="-145.97894" id="line_246" />
    <line x1="659.51807" y1="-145.97894" x2="683.90533" y2="-152.94673" id="line_247" />
    <line x1="683.90533" y1="-152.94673" x2="715.26044" y2="-54.816963" id="line_248" />
    <line x1="715.26044" y1="-54.816963" x2="659.51807" y2="-145.97894" id="line_249" />
    <line x1="659.51807" y1="-145.97894" x2="585.19489" y2="-200.55998" id="line_250" />
    <line x1="585.19489" y1="-200.55998" x2="640.10437" y2="-190.80682" id="line_251" />
    <line x1="640.10437" y1="-190.80682" x2="639.00177" y2="-228.04407" id="line_252" />
    <line x1="639.00177" y1="-228.04407" x2="641.46875" y2="-258.12982" id="line_253" />
    <line x1="641.46875" y1="-258.12982" x2="578.6142" y2="-335.65778" id="line_254" />
    <line x1="578.6142" y1="-335.65778" x2="632.42108" y2="-375.91614" id="line_255" />
    <line x1="632.42108" y1="-375.91614" x2="641.46875" y2="-258.12982" id="line_256" />
    <line x1="641.46875" y1="-258.12982" x2="659.51807" y2="-145.97894" id="line_257" />
    <line x1="659.51807" y1="-145.97894" x2="659.11798" y2="-219.92197" id="line_258" />
    <line x1="659.11798" y1="-219.92197" x2="632.42108" y2="-375.91614" id="line_259" />
    <line x1="632.42108" y1="-375.91614" x2="681.42621" y2="-364.17282" id="line_260" />
    <line x1="681.42621" y1="-364.17282" x2="719.61023" y2="-233.33427" id="line_261" />
    <line x1="719.61023" y1="-233.33427" x2="697.84088" y2="-169.20493" id="line_262" />
    <line x1="697.84088" y1="-169.20493" x2="698.94434" y2="-193.5079" id="line_263" />
    <line x1="698.94434" y1="-193.5079" x2="681.42621" y2="-364.17282" id="line_264" />
    <line x1="681.42621" y1="-364.17282" x2="624.2774" y2="-403.51105" id="line_265" />
    <line x1="624.2774" y1="-403.51105" x2="632.42108" y2="-375.91614" id="line_266" />
    <line x1="632.42108" y1="-375.91614" x2="577.47174" y2="-393.7554" id="line_267" />
    <line x1="577.47174" y1="-393.7554" x2="541.28119" y2="-405.50467" id="line_268" />
    <line x1="541.28119" y1="-405.50467" x2="531.38806" y2="-384.43234" id="line_269" />
    <line x1="531.38806" y1="-384.43234" x2="577.47174" y2="-393.7554" id="line_270" />
    <line x1="577.47174" y1="-393.7554" x2="615.13263" y2="-396.95407" id="line_271" />
    <line x1="615.13263" y1="-396.95407" x2="529.64801" y2="-426.17059" id="line_272" />
    <line x1="529.64801" y1="-426.17059" x2="541.28119" y2="-405.50467" id="line_273" />
    <line x1="541.28119" y1="-405.50467" x2="483.52606" y2="-394.82956" id="line_274" />
    <line x1="483.52606" y1="-394.82956" x2="438.48413" y2="-384.43234" id="line_275" />
    <line x1="438.48413" y1="-384.43234" x2="473.53525" y2="-409.33676" id="line_276" />
    <line x1="473.53525" y1="-409.33676" x2="457.52261" y2="-410.1579" id="line_277" />
    <line x1="457.52261" y1="-410.1579" x2="438.48413" y2="-384.43234" id="line_278" />
    <line x1="438.48413" y1="-384.43234" x2="426.04471" y2="-425.21255" id="line_279" />
    <line x1="426.04471" y1="-425.21255" x2="457.52261" y2="-410.1579" id="line_280" />
    <line x1="457.52261" y1="-410.1579" x2="399.63062" y2="-508.42371" id="line_281" />
    <line x1="399.63062" y1="-508.42371" x2="391.25797" y2="-536.94958" id="line_282" />
    <line x1="391.25797" y1="-536.94958" x2="341.51566" y2="-608.75659" id="line_283" />
    <line x1="341.51566" y1="-608.75659" x2="349.4512" y2="-642.62781" id="line_284" />
    <line x1="349.4512" y1="-642.62781" x2="317.12836" y2="-627.3374" id="line_285" />
    <line x1="317.12836" y1="-627.3374" x2="317.51437" y2="-573.70618" id="line_286" />
    <line x1="317.51437" y1="-573.70618" x2="341.51566" y2="-608.75659" id="line_287" />
    <line x1="341.51566" y1="-608.75659" x2="339.77371" y2="-576.82086" id="line_288" />
    <line x1="339.77371" y1="-576.82086" x2="317.51437" y2="-573.70618" id="line_289" />
    <line x1="317.51437" y1="-573.70618" x2="337.44019" y2="-529.3103" id="line_290" />
    <line x1="337.44019" y1="-529.3103" x2="358.74158" y2="-498.23965" id="line_291" />
    <line x1="358.74158" y1="-498.23965" x2="339.77371" y2="-576.82086" id="line_292" />
    <line x1="339.77371" y1="-576.82086" x2="381.58047" y2="-526.11084" id="line_293" />
    <line x1="381.58047" y1="-526.11084" x2="369.77393" y2="-636.04712" id="line_294" />
    <line x1="369.77393" y1="-636.04712" x2="341.51566" y2="-608.75659" id="line_295" />
    <line x1="341.51566" y1="-608.75659" x2="317.12836" y2="-627.3374" id="line_296" />
    <line x1="317.12836" y1="-627.3374" x2="285.19266" y2="-639.72455" id="line_297" />
    <line x1="285.19266" y1="-639.72455" x2="263.70862" y2="-643.78912" id="line_298" />
    <line x1="263.70862" y1="-643.78912" x2="248.99883" y2="-651.14398" id="line_299" />
    <line x1="248.99883" y1="-651.14398" x2="226.36536" y2="-656.36981" id="line_300" />
    <line x1="226.36536" y1="-656.36981" x2="208.29979" y2="-606.27887" id="line_301" />
    <line x1="208.29979" y1="-606.27887" x2="237.86163" y2="-610.65845" id="line_302" />
    <line x1="237.86163" y1="-610.65845" x2="229.3763" y2="-624.61816" id="line_303" />
    <line x1="229.3763" y1="-624.61816" x2="208.29979" y2="-606.27887" id="line_304" />
    <line x1="208.29979" y1="-606.27887" x2="189.96049" y2="-605.18402" id="line_305" />
    <line x1="189.96049" y1="-605.18402" x2="199.43983" y2="-651.47845" id="line_306" />
    <line x1="199.43983" y1="-651.47845" x2="199.90701" y2="-659.97748" id="line_307" />
    <line x1="199.90701" y1="-659.97748" x2="216.09537" y2="-670.24475" id="line_308" />
    <line x1="216.09537" y1="-670.24475" x2="227.9019" y2="-663.53119" id="line_309" />
    <line x1="227.9019" y1="-663.53119" x2="226.36536" y2="-656.36981" id="line_310" />
    <line x1="226.36536" y1="-656.36981" x2="236.41809" y2="-667.59576" id="line_311" />
    <line x1="236.41809" y1="-667.59576" x2="286.54749" y2="-690.43463" id="line_312" />
    <line x1="286.54749" y1="-690.43463" x2="316.16061" y2="-703.20892" id="line_313" />
    <line x1="316.16061" y1="-703.20892" x2="279.1926" y2="-678.24097" id="line_314" />
    <line x1="279.1926" y1="-678.24097" x2="308.22507" y2="-679.20874" id="line_315" />
    <line x1="308.22507" y1="-679.20874" x2="325.17859" y2="-661.98108" id="line_316" />
    <line x1="325.17859" y1="-661.98108" x2="339.68579" y2="-688.53198" id="line_317" />
    <line x1="339.68579" y1="-688.53198" x2="308.22507" y2="-679.20874" id="line_318" />
    <line x1="308.22507" y1="-679.20874" x2="316.16061" y2="-703.20892" id="line_319" />
    <line x1="316.16061" y1="-703.20892" x2="339.68579" y2="-688.53198" id="line_320" />
    <line x1="339.68579" y1="-688.53198" x2="349.4512" y2="-642.62781" id="line_321" />
    <line x1="349.4512" y1="-642.62781" x2="285.19266" y2="-639.72455" id="line_322" />
    <line x1="285.19266" y1="-639.72455" x2="261.57956" y2="-660.82147" id="line_323" />
    <line x1="261.57956" y1="-660.82147" x2="278.4184" y2="-670.69257" id="line_324" />
    <line x1="278.4184" y1="-670.69257" x2="296.99918" y2="-663.1441" id="line_325" />
    <line x1="296.99918" y1="-663.1441" x2="261.57956" y2="-660.82147" id="line_326" />
    <line x1="261.57956" y1="-660.82147" x2="279.77325" y2="-650.56335" id="line_327" />
    <line x1="279.77325" y1="-650.56335" x2="296.99918" y2="-663.1441" id="line_328" />
    <line x1="296.99918" y1="-663.1441" x2="285.19266" y2="-639.72455" id="line_329" />
    <line x1="285.19266" y1="-639.72455" x2="313.16061" y2="-655.01501" id="line_330" />
    <line x1="313.16061" y1="-655.01501" x2="296.99918" y2="-663.1441" id="line_331" />
    <line x1="296.99918" y1="-663.1441" x2="325.17859" y2="-661.98108" id="line_332" />
    <line x1="325.17859" y1="-661.98108" x2="324.96713" y2="-644.17627" id="line_333" />
    <line x1="324.96713" y1="-644.17627" x2="313.16061" y2="-655.01501" id="line_334" />
    <line x1="313.16061" y1="-655.01501" x2="325.17859" y2="-661.98108" id="line_335" />
    <line x1="339.68579" y1="-688.53198" x2="366.67712" y2="-716.17676" id="line_336" />
    <line x1="366.67712" y1="-716.17676" x2="327.91577" y2="-741.77069" id="line_337" />
    <line x1="327.91577" y1="-741.77069" x2="316.16061" y2="-703.20892" id="line_338" />
    <line x1="316.16061" y1="-703.20892" x2="306.89587" y2="-711.12457" id="line_339" />
    <line x1="306.89587" y1="-711.12457" x2="291.96689" y2="-713.75739" id="line_340" />
    <line x1="291.96689" y1="-713.75739" x2="286.54749" y2="-690.43463" id="line_341" />
    <line x1="286.54749" y1="-690.43463" x2="286.06363" y2="-724.69299" id="line_342" />
    <line x1="286.06363" y1="-724.69299" x2="327.91577" y2="-741.77069" id="line_343" />
    <line x1="327.91577" y1="-741.77069" x2="365.75766" y2="-766.06342" id="line_344" />
    <line x1="365.75766" y1="-766.06342" x2="366.67712" y2="-716.17676" id="line_345" />
    <line x1="366.67712" y1="-716.17676" x2="400.258" y2="-750.53186" id="line_346" />
    <line x1="400.258" y1="-750.53186" x2="404.12238" y2="-726.12335" id="line_347" />
    <line x1="404.12238" y1="-726.12335" x2="409.74197" y2="-690.62817" id="line_348" />
    <line x1="409.74197" y1="-690.62817" x2="396.61969" y2="-681.68896" id="line_349" />
    <line x1="396.61969" y1="-681.68896" x2="405.37875" y2="-670.05585" id="line_350" />
    <line x1="405.37875" y1="-670.05585" x2="428.37131" y2="-698.11224" id="line_351" />
    <line x1="428.37131" y1="-698.11224" x2="442.6048" y2="-696.33307" id="line_352" />
    <line x1="442.6048" y1="-696.33307" x2="451.22702" y2="-687.57397" id="line_353" />
    <line x1="451.22702" y1="-687.57397" x2="428.37131" y2="-698.11224" id="line_354" />
    <line x1="428.37131" y1="-698.11224" x2="409.89514" y2="-690.5849" id="line_355" />
    <line x1="409.89514" y1="-690.5849" x2="392.36673" y2="-702.36517" id="line_356" />
    <line x1="392.36673" y1="-702.36517" x2="396.68814" y2="-681.89429" id="line_357" />
    <line x1="396.68814" y1="-681.89429" x2="366.67712" y2="-716.17676" id="line_358" />
    <line x1="366.67712" y1="-716.17676" x2="364.18378" y2="-669.23468" id="line_359" />
    <line x1="364.18378" y1="-669.23468" x2="396.07224" y2="-628.31342" id="line_360" />
    <line x1="396.07224" y1="-628.31342" x2="383.75482" y2="-603.26801" id="line_361" />
    <line x1="383.75482" y1="-603.26801" x2="398.39886" y2="-586.2973" id="line_362" />
    <line x1="398.39886" y1="-586.2973" x2="404.77106" y2="-591.22461" id="line_363" />
    <line x1="404.77106" y1="-591.22461" x2="433.16144" y2="-613.25879" id="line_364" />
    <line x1="433.16144" y1="-613.25879" x2="451.22702" y2="-687.57397" id="line_365" />
    <line x1="451.22702" y1="-687.57397" x2="441.64679" y2="-685.65796" id="line_366" />
    <line x1="441.64679" y1="-685.65796" x2="433.16144" y2="-613.25879" id="line_367" />
    <line x1="433.16144" y1="-613.25879" x2="411.53748" y2="-614.14838" id="line_368" />
    <line x1="411.53748" y1="-614.14838" x2="404.77106" y2="-591.22461" id="line_369" />
    <line x1="404.77106" y1="-591.22461" x2="398.39886" y2="-608.33179" id="line_370" />
    <line x1="398.39886" y1="-608.33179" x2="391.55585" y2="-617.50146" id="line_371" />
    <line x1="391.55585" y1="-617.50146" x2="423.22803" y2="-626.96417" id="line_372" />
    <line x1="423.22803" y1="-626.96417" x2="420.77557" y2="-654.31689" id="line_373" />
    <line x1="420.77557" y1="-654.31689" x2="437.40411" y2="-669.50842" id="line_374" />
    <line x1="437.40411" y1="-669.50842" x2="423.22803" y2="-626.96417" id="line_375" />
    <line x1="423.22803" y1="-626.96417" x2="411.53748" y2="-614.14838" id="line_376" />
    <line x1="411.53748" y1="-614.14838" x2="398.39886" y2="-608.33179" id="line_377" />
    <line x1="398.39886" y1="-608.33179" x2="383.75482" y2="-603.26801" id="line_378" />
    <line x1="383.75482" y1="-603.26801" x2="376.9118" y2="-653.35889" id="line_379" />
    <line x1="376.9118" y1="-653.35889" x2="396.68814" y2="-681.89429" id="line_380" />
    <line x1="396.68814" y1="-681.89429" x2="389.51599" y2="-641.27301" id="line_381" />
    <line x1="389.51599" y1="-641.27301" x2="401.7262" y2="-663.42828" id="line_382" />
    <line x1="401.7262" y1="-663.42828" x2="405.37875" y2="-670.05585" id="line_383" />
    <line x1="405.37875" y1="-670.05585" x2="425.29196" y2="-689.42157" id="line_384" />
    <line x1="425.29196" y1="-689.42157" x2="441.64679" y2="-685.65796" id="line_385" />
    <line x1="441.64679" y1="-685.65796" x2="437.40411" y2="-669.50842" id="line_386" />
    <line x1="437.40411" y1="-669.50842" x2="426.52371" y2="-672.04034" id="line_387" />
    <line x1="426.52371" y1="-672.04034" x2="401.7262" y2="-663.42828" id="line_388" />
    <line x1="401.7262" y1="-663.42828" x2="420.77557" y2="-654.31689" id="line_389" />
    <line x1="420.77557" y1="-654.31689" x2="402.36783" y2="-651.23755" id="line_390" />
    <line x1="402.36783" y1="-651.23755" x2="423.22803" y2="-626.96417" id="line_391" />
    <line x1="423.22803" y1="-626.96417" x2="389.51599" y2="-641.27301" id="line_392" />
    <line x1="389.51599" y1="-641.27301" x2="376.9118" y2="-653.17627" id="line_393" />
    <line x1="376.9118" y1="-653.17627" x2="364.18378" y2="-669.23468" id="line_394" />
    <line x1="364.18378" y1="-669.23468" x2="344.88647" y2="-693.45898" id="line_395" />
    <line x1="344.88647" y1="-693.45898" x2="327.91577" y2="-741.77069" id="line_396" />
    <line x1="327.91577" y1="-741.77069" x2="331.88474" y2="-763.87366" id="line_397" />
    <line x1="331.88474" y1="-763.87366" x2="365.75766" y2="-766.06342" id="line_398" />
    <line x1="365.75766" y1="-766.06342" x2="400.258" y2="-750.53186" id="line_399" />
    <line x1="400.258" y1="-750.53186" x2="379.37527" y2="-777.83344" id="line_400" />
    <line x1="379.37527" y1="-777.83344" x2="365.75766" y2="-766.06342" id="line_401" />
    <line x1="365.75766" y1="-766.06342" x2="328.73694" y2="-807.32684" id="line_402" />
    <line x1="328.73694" y1="-807.32684" x2="379.37527" y2="-777.83344" id="line_403" />
    <line x1="379.37527" y1="-777.83344" x2="317.71982" y2="-793.02502" id="line_404" />
    <line x1="317.71982" y1="-793.02502" x2="279.74091" y2="-813.21179" id="line_405" />
    <line x1="279.74091" y1="-813.21179" x2="288.61621" y2="-774.67365" id="line_406" />
    <line x1="288.61621" y1="-774.67365" x2="245.79953" y2="-790.90356" id="line_407" />
    <line x1="245.79953" y1="-790.90356" x2="313.61334" y2="-781.11749" id="line_408" />
    <line x1="313.61334" y1="-781.11749" x2="365.75766" y2="-766.06342" id="line_409" />
    <line x1="365.75766" y1="-766.06342" x2="317.71982" y2="-793.02502" id="line_410" />
    <line x1="317.71982" y1="-793.02502" x2="328.73694" y2="-807.32684" id="line_411" />
    <line x1="328.73694" y1="-807.32684" x2="279.74091" y2="-813.21179" id="line_412" />
    <line x1="279.74091" y1="-813.21179" x2="245.79953" y2="-790.90356" id="line_413" />
    <line x1="245.79953" y1="-790.90356" x2="217.74315" y2="-791.04047" id="line_414" />
    <line x1="217.74315" y1="-791.04047" x2="279.74091" y2="-813.21179" id="line_415" />
    <line x1="279.74091" y1="-813.21179" x2="313.61334" y2="-781.11749" id="line_416" />
    <line x1="313.61334" y1="-781.11749" x2="331.88474" y2="-763.80524" id="line_417" />
    <line x1="331.88474" y1="-763.80524" x2="308.84296" y2="-761.54449" id="line_418" />
    <line x1="308.84296" y1="-761.54449" x2="295.61673" y2="-760.24683" id="line_419" />
    <line x1="295.61673" y1="-760.24683" x2="286.06363" y2="-724.69299" id="line_420" />
    <line x1="286.06363" y1="-724.69299" x2="236.41809" y2="-667.59576" id="line_421" />
    <line x1="236.41809" y1="-667.59576" x2="225.68105" y2="-704.95526" id="line_422" />
    <line x1="225.68105" y1="-704.95526" x2="245.79953" y2="-790.90356" id="line_423" />
    <line x1="245.79953" y1="-790.90356" x2="270.98184" y2="-765.85815" id="line_424" />
    <line x1="270.98184" y1="-765.85815" x2="295.61673" y2="-760.24683" id="line_425" />
    <line x1="295.61673" y1="-760.24683" x2="225.68105" y2="-704.95526" id="line_426" />
    <line x1="225.68105" y1="-704.95526" x2="286.06363" y2="-724.69299" id="line_427" />
    <line x1="286.06363" y1="-724.69299" x2="291.96689" y2="-713.75739" id="line_428" />
    <line x1="291.96689" y1="-713.75739" x2="327.91577" y2="-741.77069" id="line_429" />
    <line x1="327.91577" y1="-741.77069" x2="308.84296" y2="-761.54449" id="line_430" />
    <line x1="308.84296" y1="-761.54449" x2="288.61621" y2="-774.67365" id="line_431" />
    <line x1="288.61621" y1="-774.67365" x2="270.98184" y2="-765.85815" id="line_432" />
    <line x1="270.98184" y1="-765.85815" x2="225.68105" y2="-704.95526" id="line_433" />
    <line x1="225.68105" y1="-704.95526" x2="206.52058" y2="-704.95526" id="line_434" />
    <line x1="206.52058" y1="-704.95526" x2="245.79953" y2="-790.90356" id="line_435" />
    <line x1="245.79953" y1="-790.90356" x2="192.93083" y2="-768.57269" id="line_436" />
    <line x1="192.93083" y1="-768.57269" x2="178.35313" y2="-761.17712" id="line_437" />
    <line x1="178.35313" y1="-761.17712" x2="173.54028" y2="-743.30768" id="line_438" />
    <line x1="173.54028" y1="-743.30768" x2="168.57886" y2="-724.88654" id="line_439" />
    <line x1="168.57886" y1="-724.88654" x2="196.83714" y2="-666.62799" id="line_440" />
    <line x1="196.83714" y1="-666.62799" x2="206.52058" y2="-704.95526" id="line_441" />
    <line x1="206.52058" y1="-704.95526" x2="214.83728" y2="-678.97913" id="line_442" />
    <line x1="214.83728" y1="-678.97913" x2="225.68105" y2="-704.95526" id="line_443" />
    <line x1="236.41809" y1="-667.59576" x2="214.83728" y2="-678.97913" id="line_444" />
    <line x1="214.83728" y1="-678.97913" x2="196.83714" y2="-666.62799" id="line_445" />
    <line x1="196.83714" y1="-666.62799" x2="161.5143" y2="-681.91846" id="line_446" />
    <line x1="161.5143" y1="-681.91846" x2="174.48215" y2="-711.9187" id="line_447" />
    <line x1="174.48215" y1="-711.9187" x2="206.52061" y2="-704.95526" id="line_448" />
    <line x1="206.52061" y1="-704.95526" x2="195.30901" y2="-757.32684" id="line_449" />
    <line x1="195.30901" y1="-757.32684" x2="192.93085" y2="-768.57269" id="line_450" />
    <line x1="192.93085" y1="-768.57269" x2="217.74315" y2="-791.04047" id="line_451" />
    <line x1="217.74315" y1="-791.04047" x2="195.30901" y2="-757.32684" id="line_452" />
    <line x1="195.30901" y1="-757.32684" x2="173.54028" y2="-743.30768" id="line_453" />
    <line x1="173.54028" y1="-743.30768" x2="174.48213" y2="-711.9187" id="line_454" />
    <line x1="174.48213" y1="-711.9187" x2="145.83676" y2="-689.56366" id="line_455" />
    <line x1="145.83676" y1="-689.56366" x2="168.57887" y2="-724.88654" id="line_456" />
    <line x1="168.57887" y1="-724.88654" x2="161.5143" y2="-681.91846" id="line_457" />
    <line x1="161.5143" y1="-681.91846" x2="145.83678" y2="-689.56366" id="line_458" />
    <line x1="145.83678" y1="-689.56366" x2="150.77228" y2="-664.45056" id="line_459" />
    <line x1="150.77228" y1="-664.45056" x2="173.70795" y2="-669.87" id="line_460" />
    <line x1="173.70795" y1="-669.87" x2="145.83678" y2="-689.56366" id="line_461" />
    <line x1="145.83678" y1="-689.56366" x2="166.01434" y2="-645.04718" id="line_462" />
    <line x1="166.01434" y1="-645.04718" x2="185.10194" y2="-634.67743" id="line_463" />
    <line x1="185.10194" y1="-634.67743" x2="199.43985" y2="-651.47845" id="line_464" />
    <line x1="199.90703" y1="-659.97748" x2="184.3214" y2="-666.69989" id="line_465" />
    <line x1="184.3214" y1="-666.69989" x2="172.98357" y2="-659.87036" id="line_466" />
    <line x1="172.98357" y1="-659.87036" x2="184.88545" y2="-651.19244" id="line_467" />
    <line x1="184.88545" y1="-651.19244" x2="199.90703" y2="-659.97748" id="line_468" />
    <line x1="199.90703" y1="-659.97748" x2="172.98357" y2="-659.87042" id="line_469" />
    <line x1="172.98357" y1="-659.87042" x2="166.01434" y2="-645.04724" id="line_470" />
    <line x1="166.01434" y1="-645.04724" x2="151.64326" y2="-626.70837" id="line_471" />
    <line x1="151.64326" y1="-626.70837" x2="161.8148" y2="-598.34259" id="line_472" />
    <line x1="161.8148" y1="-598.34259" x2="170.73161" y2="-594.23523" id="line_473" />
    <line x1="170.73161" y1="-594.23523" x2="171.38535" y2="-615.047" id="line_474" />
    <line x1="171.38535" y1="-615.047" x2="185.10194" y2="-634.67749" id="line_475" />
    <line x1="185.10194" y1="-634.67749" x2="151.64326" y2="-626.70837" id="line_476" />
    <line x1="151.64326" y1="-626.70837" x2="171.38535" y2="-615.047" id="line_477" />
    <line x1="171.38535" y1="-615.047" x2="161.8148" y2="-598.34259" id="line_478" />
    <line x1="161.8148" y1="-598.34259" x2="176.36925" y2="-575.90155" id="line_479" />
    <line x1="176.36925" y1="-575.90155" x2="165.32562" y2="-510.33978" id="line_480" />
    <line x1="165.32562" y1="-510.33978" x2="171.31427" y2="-504.40356" id="line_481" />
    <line x1="171.31427" y1="-504.40356" x2="166.55737" y2="-472.42944" id="line_482" />
    <line x1="166.55737" y1="-472.42944" x2="178.32736" y2="-471.33456" id="line_483" />
    <line x1="178.32736" y1="-471.33456" x2="176.95876" y2="-432.32935" id="line_484" />
    <line x1="176.95876" y1="-432.32935" x2="143.42796" y2="-403.86237" id="line_485" />
    <line x1="143.42796" y1="-403.86237" x2="175.86388" y2="-412.7583" id="line_486" />
    <line x1="175.86388" y1="-412.7583" x2="188.1813" y2="-465.31271" id="line_487" />
    <line x1="188.1813" y1="-465.31271" x2="179.55911" y2="-489.53699" id="line_488" />
    <line x1="179.55911" y1="-489.53699" x2="166.55737" y2="-472.42944" id="line_489" />
    <line x1="166.55737" y1="-472.42944" x2="184.7598" y2="-517.59338" id="line_490" />
    <line x1="184.7598" y1="-517.59338" x2="187.08643" y2="-537.84875" id="line_491" />
    <line x1="187.08643" y1="-537.84875" x2="171.31427" y2="-504.40356" id="line_492" />
    <line x1="171.31427" y1="-504.40356" x2="178.74023" y2="-543.53033" id="line_493" />
    <line x1="178.74023" y1="-543.53033" x2="187.08643" y2="-537.84875" id="line_494" />
    <line x1="187.08643" y1="-537.84875" x2="206.36949" y2="-537.43353" id="line_495" />
    <line x1="206.36949" y1="-537.43353" x2="231.24062" y2="-538.01416" id="line_496" />
    <line x1="231.24062" y1="-538.01416" x2="246.38589" y2="-537.62708" id="line_497" />
    <line x1="246.38589" y1="-537.62708" x2="267.96671" y2="-538.59485" id="line_498" />
    <line x1="267.96671" y1="-538.59485" x2="282.75183" y2="-539.62793" id="line_499" />
    <line x1="282.75183" y1="-539.62793" x2="304.23892" y2="-526.83148" id="line_500" />
    <line x1="304.23892" y1="-526.83148" x2="305.26538" y2="-541.27026" id="line_501" />
    <line x1="305.26538" y1="-541.27026" x2="260.51202" y2="-564.5365" id="line_502" />
    <line x1="260.51202" y1="-564.5365" x2="229.93417" y2="-567.72406" id="line_503" />
    <line x1="229.93417" y1="-567.72406" x2="218.17601" y2="-561.72406" id="line_504" />
    <line x1="218.17601" y1="-561.72406" x2="205.98238" y2="-566.80475" id="line_505" />
    <line x1="205.98238" y1="-566.80475" x2="187.56543" y2="-561.52557" id="line_506" />
    <line x1="187.56543" y1="-561.52557" x2="178.74023" y2="-543.53033" id="line_507" />
    <line x1="187.08643" y1="-537.84875" x2="194.74106" y2="-547.26617" id="line_508" />
    <line x1="194.74106" y1="-547.26617" x2="213.29518" y2="-551.19263" id="line_509" />
    <line x1="213.29518" y1="-551.19263" x2="225.74948" y2="-551.60321" id="line_510" />
    <line x1="225.74948" y1="-551.60321" x2="242.30959" y2="-551.60321" id="line_511" />
    <line x1="242.30959" y1="-551.60321" x2="261.33319" y2="-549.96088" id="line_512" />
    <line x1="261.33319" y1="-549.96088" x2="282.75183" y2="-539.62793" id="line_513" />
    <line x1="267.96671" y1="-538.59485" x2="261.33319" y2="-549.96088" id="line_514" />
    <line x1="261.33319" y1="-549.96088" x2="260.51202" y2="-564.5365" id="line_515" />
    <line x1="260.51202" y1="-564.5365" x2="261.7731" y2="-599.72052" id="line_516" />
    <line x1="261.7731" y1="-599.72052" x2="305.26538" y2="-541.27026" id="line_517" />
    <line x1="305.26538" y1="-541.27026" x2="312.52545" y2="-534.22296" id="line_518" />
    <line x1="312.52545" y1="-534.22296" x2="324.87036" y2="-522.23987" id="line_519" />
    <line x1="324.87036" y1="-522.23987" x2="337.44019" y2="-529.31036" id="line_520" />
    <line x1="337.44019" y1="-529.31036" x2="348.15488" y2="-505.3107" id="line_521" />
    <line x1="348.15488" y1="-505.3107" x2="361.85715" y2="-474.6192" id="line_522" />
    <line x1="347.48682" y1="-474.34549" x2="348.15488" y2="-505.3107" id="line_523" />
    <line x1="348.15488" y1="-505.3107" x2="324.87036" y2="-522.23987" id="line_524" />
    <line x1="324.87036" y1="-522.23987" x2="351.72949" y2="-458.88025" id="line_525" />
    <line x1="346.45963" y1="-442.10028" x2="324.87036" y2="-522.23987" id="line_526" />
    <line x1="312.52548" y1="-534.22296" x2="313.25739" y2="-474.52985" id="line_527" />
    <line x1="313.25739" y1="-474.52985" x2="335.99057" y2="-457.51166" id="line_528" />
    <line x1="335.99057" y1="-457.51166" x2="324.87039" y2="-522.23987" id="line_529" />
    <line x1="324.87039" y1="-522.23987" x2="304.64951" y2="-580.82294" id="line_530" />
    <line x1="304.64951" y1="-580.82294" x2="317.5144" y2="-573.70618" id="line_531" />
    <line x1="317.5144" y1="-573.70618" x2="293.15326" y2="-610.52161" id="line_532" />
    <line x1="293.15326" y1="-610.52161" x2="263.70862" y2="-643.78912" id="line_533" />
    <line x1="263.70862" y1="-643.78912" x2="284.94162" y2="-587.11847" id="line_534" />
    <line x1="284.94162" y1="-587.11847" x2="261.77313" y2="-599.72052" id="line_535" />
    <line x1="261.77313" y1="-599.72052" x2="261.77313" y2="-599.72052" id="line_536" />
    <line x1="261.77313" y1="-599.72052" x2="258.77942" y2="-610.60919" id="line_537" />
    <line x1="258.77942" y1="-610.60919" x2="237.86165" y2="-610.65851" id="line_538" />
    <line x1="258.77942" y1="-610.60919" x2="257.03116" y2="-620.07928" id="line_539" />
    <line x1="257.03116" y1="-620.07928" x2="248.51495" y2="-626.56323" id="line_540" />
    <line x1="248.51495" y1="-626.56323" x2="229.3763" y2="-624.61816" id="line_541" />
    <line x1="229.3763" y1="-624.61816" x2="236.99875" y2="-636.43427" id="line_542" />
    <line x1="236.99875" y1="-636.43427" x2="219.09538" y2="-637.49878" id="line_543" />
    <line x1="219.09538" y1="-637.49878" x2="248.99883" y2="-651.14404" id="line_544" />
    <line x1="248.99883" y1="-651.14404" x2="257.03116" y2="-620.07928" id="line_545" />
    <line x1="261.77313" y1="-599.72052" x2="229.93417" y2="-567.72406" id="line_546" />
    <line x1="229.93417" y1="-567.72406" x2="223.2567" y2="-585.24036" id="line_547" />
    <line x1="223.2567" y1="-585.24036" x2="261.77313" y2="-599.72052" id="line_548" />
    <line x1="261.77313" y1="-599.72052" x2="214.86909" y2="-586.16046" id="line_549" />
    <line x1="214.86909" y1="-586.16046" x2="190.23422" y2="-597.383" id="line_550" />
    <line x1="190.23422" y1="-597.383" x2="189.96049" y2="-605.18402" id="line_551" />
    <line x1="189.96049" y1="-605.18402" x2="170.7316" y2="-594.23517" id="line_552" />
    <line x1="170.7316" y1="-594.23517" x2="179.35382" y2="-583.14954" id="line_553" />
    <line x1="179.35382" y1="-583.14954" x2="190.23422" y2="-597.383" id="line_554" />
    <line x1="190.23422" y1="-597.383" x2="187.56544" y2="-561.52557" id="line_555" />
    <line x1="187.56544" y1="-561.52557" x2="213.2952" y2="-551.19263" id="line_556" />
    <line x1="213.2952" y1="-551.19263" x2="206.36948" y2="-537.43347" id="line_557" />
    <line x1="206.36948" y1="-537.43347" x2="191.53439" y2="-486.7998" id="line_558" />
    <line x1="191.53439" y1="-486.7998" x2="217.60629" y2="-531.27942" id="line_559" />
    <line x1="217.60629" y1="-531.27942" x2="228.14455" y2="-531.00574" id="line_560" />
    <line x1="228.14455" y1="-531.00574" x2="223.83736" y2="-296.36716" id="line_561" />
    <line x1="223.83736" y1="-296.36716" x2="217.60629" y2="-531.27942" id="line_562" />
    <line x1="217.60629" y1="-531.27942" x2="200.8409" y2="-427.88138" id="line_563" />
    <line x1="200.8409" y1="-427.88138" x2="191.53439" y2="-486.7998" id="line_564" />
    <line x1="191.53439" y1="-486.7998" x2="185.03061" y2="-389.755" id="line_565" />
    <line x1="185.03061" y1="-389.755" x2="191.90163" y2="-397.71521" id="line_566" />
    <line x1="191.90163" y1="-397.71521" x2="191.53439" y2="-486.7998" id="line_567" />
    <line x1="191.53439" y1="-486.7998" x2="179.55911" y2="-489.53699" id="line_568" />
    <line x1="179.55911" y1="-489.53699" x2="206.36948" y2="-537.43347" id="line_569" />
    <line x1="206.36948" y1="-537.43347" x2="200.8409" y2="-427.88138" id="line_570" />
    <line x1="200.8409" y1="-427.88138" x2="198.19199" y2="-380.4646" id="line_571" />
    <line x1="198.19199" y1="-380.4646" x2="176.41766" y2="-359.27084" id="line_572" />
    <line x1="176.41766" y1="-359.27084" x2="203.23595" y2="-366.22577" id="line_573" />
    <line x1="203.23595" y1="-366.22577" x2="198.19199" y2="-380.4646" id="line_574" />
    <line x1="203.23595" y1="-366.22577" x2="210.28886" y2="-358.88376" id="line_575" />
    <line x1="210.28886" y1="-358.88376" x2="217.60629" y2="-531.27942" id="line_576" />
    <line x1="228.14455" y1="-531.00574" x2="235.45033" y2="-525.23987" id="line_577" />
    <line x1="235.45033" y1="-525.23987" x2="230.60805" y2="-384.70187" id="line_578" />
    <line x1="230.60805" y1="-384.70187" x2="236.35616" y2="-331.32635" id="line_579" />
    <line x1="236.35616" y1="-331.32635" x2="245.05573" y2="-339.78305" id="line_580" />
    <line x1="245.05573" y1="-339.78305" x2="235.45033" y2="-525.23987" id="line_581" />
    <line x1="235.45033" y1="-525.23987" x2="241.89902" y2="-515.40363" id="line_582" />
    <line x1="241.89902" y1="-515.40363" x2="245.05573" y2="-339.78305" id="line_583" />
    <line x1="254.01118" y1="-379.91177" x2="252.38594" y2="-414.14227" id="line_584" />
    <line x1="252.38594" y1="-414.14227" x2="266.70862" y2="-493.1106" id="line_585" />
    <line x1="266.70862" y1="-493.1106" x2="268.64413" y2="-466.88461" id="line_586" />
    <line x1="268.64413" y1="-466.88461" x2="265.81967" y2="-387.01816" id="line_587" />
    <line x1="278.23666" y1="-392.56027" x2="268.64413" y2="-466.88461" id="line_588" />
    <line x1="268.64413" y1="-466.88461" x2="281.65698" y2="-410.1579" id="line_589" />
    <line x1="291.28946" y1="-412.01324" x2="289.64429" y2="-480.62665" id="line_590" />
    <line x1="289.64429" y1="-480.62665" x2="299.85941" y2="-415.63232" id="line_591" />
    <line x1="299.85941" y1="-415.63232" x2="305.99924" y2="-489.23962" id="line_592" />
    <line x1="305.99924" y1="-489.23962" x2="266.70862" y2="-493.1106" id="line_593" />
    <line x1="266.70862" y1="-493.1106" x2="259.25696" y2="-515.27209" id="line_594" />
    <line x1="259.25696" y1="-515.27209" x2="305.99924" y2="-489.23962" id="line_595" />
    <line x1="305.99924" y1="-489.23962" x2="267.96671" y2="-538.59485" id="line_596" />
    <line x1="246.38591" y1="-537.62708" x2="259.25696" y2="-515.27209" id="line_597" />
    <line x1="259.25696" y1="-515.27209" x2="241.89902" y2="-515.40363" id="line_598" />
    <line x1="241.89902" y1="-515.40363" x2="266.70862" y2="-493.1106" id="line_599" />
    <line x1="266.70862" y1="-493.1106" x2="291.28946" y2="-412.01324" id="line_600" />
    <line x1="291.28946" y1="-412.01324" x2="293.88562" y2="-403.83621" id="line_601" />
    <line x1="293.88562" y1="-403.83621" x2="301.76828" y2="-406.76935" id="line_602" />
    <line x1="301.76828" y1="-406.76935" x2="311.90314" y2="-422.06479" id="line_603" />
    <line x1="311.90314" y1="-422.06479" x2="313.25739" y2="-474.52982" id="line_604" />
    <line x1="313.25739" y1="-474.52982" x2="316.28268" y2="-429.18152" id="line_605" />
    <line x1="316.28268" y1="-429.18152" x2="329.60342" y2="-440.67279" id="line_606" />
    <line x1="329.60342" y1="-440.67279" x2="324.87039" y2="-522.23987" id="line_607" />
    <line x1="324.87039" y1="-522.23987" x2="317.5144" y2="-573.70618" id="line_608" />
    <line x1="317.5144" y1="-573.70618" x2="349.45123" y2="-642.62781" id="line_609" />
    <line x1="349.45123" y1="-642.62781" x2="364.18381" y2="-669.23468" id="line_610" />
    <line x1="364.18381" y1="-669.23468" x2="392.36676" y2="-702.36517" id="line_611" />
    <line x1="392.36676" y1="-702.36517" x2="404.12238" y2="-726.12335" id="line_612" />
    <line x1="404.12238" y1="-726.12335" x2="416.9985" y2="-734.60858" id="line_613" />
    <line x1="416.9985" y1="-734.60858" x2="413.76492" y2="-753.59625" id="line_614" />
    <line x1="413.76492" y1="-753.59625" x2="395.30716" y2="-779.89203" id="line_615" />
    <line x1="395.30716" y1="-779.89203" x2="379.00687" y2="-793.87219" id="line_616" />
    <line x1="379.00687" y1="-793.87219" x2="335.44443" y2="-819.14386" id="line_617" />
    <line x1="335.44443" y1="-819.14386" x2="322.76117" y2="-821.38696" id="line_618" />
    <line x1="322.76117" y1="-821.38696" x2="280.70453" y2="-826.31403" id="line_619" />
    <line x1="280.70453" y1="-826.31403" x2="269.59253" y2="-823.16058" id="line_620" />
    <line x1="269.59253" y1="-823.16058" x2="213.56686" y2="-803.04224" id="line_621" />
    <line x1="213.56686" y1="-803.04224" x2="203.33211" y2="-794.75153" id="line_622" />
    <line x1="203.33211" y1="-794.75153" x2="186.38499" y2="-779.44318" id="line_623" />
    <line x1="186.38499" y1="-779.44318" x2="171.9826" y2="-771.91809" id="line_624" />
    <line x1="171.9826" y1="-771.91809" x2="165.82954" y2="-761.25549" id="line_625" />
    <line x1="165.82954" y1="-761.25549" x2="157.47885" y2="-730.26587" id="line_626" />
    <line x1="157.47885" y1="-730.26587" x2="131.65721" y2="-682.63434" id="line_627" />
    <line x1="131.65721" y1="-682.63434" x2="152.75075" y2="-648.07263" id="line_628" />
    <line x1="152.75075" y1="-648.07263" x2="141.55814" y2="-633.52478" id="line_629" />
    <line x1="141.55814" y1="-633.52478" x2="142.32304" y2="-618.69379" id="line_630" />
    <line x1="142.32304" y1="-618.69379" x2="153.7494" y2="-589.69934" id="line_631" />
    <line x1="153.7494" y1="-589.69934" x2="163.66536" y2="-573.22064" id="line_632" />
    <line x1="163.66536" y1="-573.22064" x2="153.37518" y2="-511.92218" id="line_633" />
    <line x1="153.37518" y1="-511.92218" x2="158.24442" y2="-500.16714" id="line_634" />
    <line x1="158.24442" y1="-500.16714" x2="154.54491" y2="-473.11371" id="line_635" />
    <line x1="154.54491" y1="-473.11371" x2="165.8316" y2="-459.47043" id="line_636" />
    <line x1="165.8316" y1="-459.47043" x2="165.10027" y2="-438.60349" id="line_637" />
    <line x1="165.10027" y1="-438.60349" x2="137.9463" y2="-415.55106" id="line_638" />
    <line x1="137.9463" y1="-415.55106" x2="111.23501" y2="-406.75137" id="line_639" />
    <line x1="111.23501" y1="-406.75137" x2="101.40041" y2="-398.52121" id="line_640" />
    <line x1="101.40041" y1="-398.52121" x2="58.569412" y2="-358.06543" id="line_641" />
    <line x1="58.569412" y1="-358.06543" x2="54.426735" y2="-346.79187" id="line_642" />
    <line x1="54.426735" y1="-346.79187" x2="29.706696" y2="-229.2578" id="line_643" />
    <line x1="29.706696" y1="-229.2578" x2="31.430676" y2="-216.55287" id="line_644" />
    <line x1="31.430676" y1="-216.55287" x2="44.577579" y2="-151.4832" id="line_645" />
    <line x1="44.577579" y1="-151.4832" x2="13.149731" y2="-107.17795" id="line_646" />
    <line x1="13.149731" y1="-107.17795" x2="8.0180616" y2="-93.140083" id="line_647" />
    <line x1="8.0180616" y1="-93.140083" x2="-3.757668" y2="-58.071693" id="line_648" />
    <line x1="-3.757668" y1="-58.071693" x2="-3.757668" y2="-44.797813" id="line_649" />
    <line x1="-3.757668" y1="-44.797813" x2="9.3047895" y2="-54.816963" id="line_650" />
    <line x1="9.3047895" y1="-54.816963" x2="95.365692" y2="-54.816963" id="line_651" />
    <line x1="95.365692" y1="-54.816963" x2="129.88969" y2="-142.30148" id="line_652" />
    <line x1="129.88969" y1="-142.30148" x2="147.77228" y2="-54.816963" id="line_653" />
    <line x1="147.77228" y1="-54.816963" x2="715.26044" y2="-54.816963" id="line_654" />
    <line x1="715.26044" y1="-54.816963" x2="728.71832" y2="-49.836895" id="line_655" />
    <line x1="728.71832" y1="-49.836895" x2="728.71832" y2="-60.659714" id="line_656" />
    <line x1="728.71832" y1="-60.659714" x2="712.3772" y2="-167.9984" id="line_657" />
    <line x1="712.3772" y1="-167.9984" x2="733.38739" y2="-230.13943" id="line_658" />
    <line x1="733.38739" y1="-230.13943" x2="731.81903" y2="-242.03255" id="line_659" />
    <line x1="731.81903" y1="-242.03255" x2="694.85052" y2="-368.57373" id="line_660" />
    <line x1="694.85052" y1="-368.57373" x2="429.95935" y2="-539.75403" id="line_661" />
    <line x1="429.95935" y1="-539.75403" x2="420.33423" y2="-585.85889" id="line_662" />
    <line x1="420.33423" y1="-585.85889" x2="443.28613" y2="-603.79401" id="line_663" />
    <line x1="443.28613" y1="-603.79401" x2="448.11902" y2="-614.78986" id="line_664" />
    <line x1="448.11902" y1="-614.78986" x2="464.90759" y2="-684.09473" id="line_665" />
    <line x1="464.90759" y1="-684.09473" x2="460.18607" y2="-697.21484" id="line_666" />
    <line x1="460.18607" y1="-697.21484" x2="439.45068" y2="-712.29205" id="line_667" />
    <line x1="439.45068" y1="-712.29205" x2="421.2345" y2="-708.95837" id="line_668" />
    <line x1="421.2345" y1="-708.95837" x2="416.99847" y2="-734.60858" id="line_669" />
  </g>
</svg>