<svg width="1441.341" height="1500.075" xmlns:xlink="http://www.w3.org/1999/xlink" xmlns="http://www.w3.org/2000/svg">
    <defs>
        <filter style="color-interpolation-filters:sRGB" id="a" x="-.013" y="-.012" width="1.025" height="1.024">
            <feGaussianBlur stdDeviation="3.409" />
        </filter>
    </defs>
    <g style="mix-blend-mode:normal;strokeWidth:.348275;stroke-dasharray:none;filter:url(#a)">
        <g transform="matrix(2.1057 0 0 2.10552 2105.31 2092.262)" style="strokeWidth:.348277;stroke-dasharray:none">
            <ellipse
                style="fill:none;fill-opacity:1;stroke:#fff;strokeWidth:.348277;stroke-linecap:round;stroke-linejoin:round;stroke-dasharray:none;stroke-opacity:0"
                cx="-645.893" cy="-618.098" rx="322.219" ry="322.202" />
            <path
                style="fill:none;stroke:#fff;strokeWidth:.348277;stroke-linecap:butt;stroke-linejoin:miter;stroke-dasharray:none;stroke-opacity:1"
                d="m-786.168-327.82-105.684-195.152 58.244-228.5-2.818-124.936 33.504 100.93 155.317-82.613-115.225-7.387-2.82 56.567-37.272 33.432 25.209 72.383-114.139 180.124L-734.03-623.25l-43.683-79.847 44.13-52.572 85.978-102.423-92.656-22.282-22.569 14.895 22.57-14.895-81.136-92.79 58.566 107.685-73.596-10.93 15.03-96.755 173.791 115.072 138.564-111.314-65.29 133.859-73.274-22.545 62.941 177.54 10.334-154.995 102.396 39.923-37.107-173.782-28.182 103.33 65.289 70.452-38.047 72.8-64.35-112.723 65.29-133.86 37.107 173.783 29.591 55.423-67.638 17.378 119.306 88.77-55.895-1.41-138.094-45.089 74.683-42.271-74.683 42.271-149.366 57.302 43.213 61.528 106.153-118.83 30.061 61.998 108.033-16.908-65.29 69.043-42.743-52.135-136.214 56.832-201.035 38.749 170.034 25.597-64.35 169.556 101.457 38.044-44.812-73.38 185.254-152.537-134.806 21.136-42.743-2.819 31-64.346 146.549 31.938 32.41-36.635 82.668 40.863 23.703-58.929 14.813-49.568-52.607 43.21-6.106 29.59-62.471-5.166-178.958 4.697 136.214-56.832 42.744 52.135 16.91 60.59-41.335 84.072-61.767 54.923-86.66 77.058 141.904-30.044 42.22-8.94 5.637-177.07-49.32-9.863-140.441 225.917 141.904-30.044 6.523-101.937 41.334-84.073-150.606 92.06-140.612 85.95 56.645-35.337 50.448-131.4 134.806-35.227 49.32 23.954 65.758-19.726-20.197-35.696 6.106-29.59-3.288-44.62-18.788-55.892 23.015-48.847-131.987-95.346 37.107-30.53-110.382 7.985 62.941 177.54-62.94-177.54-1.88 129.633-38.868 17.495 13.27 30.53 13.621 7.515 32.645-13.739 44.152 6.106-64.82-47.907-128.23 25.362 116.253 30.178-3.053-23.485 8.927-7.22 21.023 1.258-14.92-26.093-11.804 8.268 5.701 16.568-9.936-13.603-12.965 9.08 13.974 11.742" />
            <circle
                style="fill:none;fill-opacity:1;stroke:#fff;strokeWidth:.348277;stroke-linecap:round;stroke-linejoin:round;stroke-dasharray:none"
                cx="-785.484" cy="-327.732" r="9.159" />
            <circle
                style="fill:none;fill-opacity:1;stroke:#fff;strokeWidth:.348277;stroke-linecap:round;stroke-linejoin:round;stroke-dasharray:none"
                cx="-740.261" cy="-880.373" r="9.159" />
            <circle
                style="fill:none;fill-opacity:1;stroke:#fff;strokeWidth:.348277;stroke-linecap:round;stroke-linejoin:round;stroke-dasharray:none"
                cx="-509.295" cy="-722.736" r="9.159" />
            <circle
                style="fill:none;fill-opacity:1;stroke:#fff;strokeWidth:.348277;stroke-linecap:round;stroke-linejoin:round;stroke-dasharray:none"
                cx="-471.25" cy="-795.537" r="9.159" />
            <circle
                style="fill:none;fill-opacity:1;stroke:#fff;strokeWidth:.348277;stroke-linecap:round;stroke-linejoin:round;stroke-dasharray:none"
                cx="-441.659" cy="-740.113" r="9.159" />
            <circle
                style="fill:none;fill-opacity:1;stroke:#fff;strokeWidth:.348277;stroke-linecap:round;stroke-linejoin:round;stroke-dasharray:none"
                cx="-891.167" cy="-522.886" r="9.159" />
            <circle
                style="fill:none;fill-opacity:1;stroke:#fff;strokeWidth:.348277;stroke-linecap:round;stroke-linejoin:round;stroke-dasharray:none"
                cx="-733.347" cy="-623.164" r="9.159" />
            <circle
                style="fill:none;fill-opacity:1;stroke:#fff;strokeWidth:.348277;stroke-linecap:round;stroke-linejoin:round;stroke-dasharray:none"
                cx="-777.03" cy="-703.009" r="9.159" />
            <circle
                style="fill:none;fill-opacity:1;stroke:#fff;strokeWidth:.348277;stroke-linecap:round;stroke-linejoin:round;stroke-dasharray:none"
                cx="-536.284" cy="-421.756" r="9.159" />
            <circle
                style="fill:none;fill-opacity:1;stroke:#fff;strokeWidth:.348277;stroke-linecap:round;stroke-linejoin:round;stroke-dasharray:none"
                cx="-729.523" cy="-363.156" r="9.159" />
            <circle
                style="fill:none;fill-opacity:1;stroke:#fff;strokeWidth:.348277;stroke-linecap:round;stroke-linejoin:round;stroke-dasharray:none"
                cx="-536.54" cy="-865.99" r="9.159" />
            <circle
                style="fill:none;fill-opacity:1;stroke:#fff;strokeWidth:.348277;stroke-linecap:round;stroke-linejoin:round;stroke-dasharray:none"
                cx="-647.604" cy="-858.091" r="9.159" />
            <circle
                style="fill:none;fill-opacity:1;stroke:#fff;strokeWidth:.348277;stroke-linecap:round;stroke-linejoin:round;stroke-dasharray:none"
                cx="-511.859" cy="-566.418" r="9.159" />
            <circle
                style="fill:none;fill-opacity:1;stroke:#fff;strokeWidth:.348277;stroke-linecap:round;stroke-linejoin:round;stroke-dasharray:none"
                cx="-544.269" cy="-529.783" r="9.159" />
            <circle
                style="fill:none;fill-opacity:1;stroke:#fff;strokeWidth:.348277;stroke-linecap:round;stroke-linejoin:round;stroke-dasharray:none"
                cx="-679.075" cy="-494.557" r="9.159" />
            <circle
                style="fill:none;fill-opacity:1;stroke:#fff;strokeWidth:.348277;stroke-linecap:round;stroke-linejoin:round;stroke-dasharray:none"
                cx="-583.981" cy="-680.464" r="9.159" />
            <path
                style="fill:none;fill-opacity:1;stroke:#fff;strokeWidth:.348277;stroke-linecap:round;stroke-linejoin:round;stroke-dasharray:none"
                d="m-543.585-515.605-134.804 21.136-50.448 131.4zM-654.901-703.536l-9.938-13.601-12.964 9.078 13.973 11.744z" />
            <path
                style="fill:none;fill-opacity:1;stroke:#fff;strokeWidth:.348277;stroke-linecap:round;stroke-linejoin:round;stroke-dasharray:none"
                d="m-648.798-728.372-11.807 8.27 5.704 16.566 21.02 1.258z" />
            <path
                style="fill:none;fill-opacity:1;stroke:#fff;strokeWidth:.348277;stroke-linecap:round;stroke-linejoin:round;stroke-dasharray:none"
                d="m-660.776-672.83-3.054-23.485-13.973-11.744 12.964-9.078 9.938 13.6-5.704-16.566 11.807-8.27-38.87 17.497 13.27 30.528z" />
            <path
                style="fill:none;fill-opacity:1;stroke:#fff;strokeWidth:.348277;stroke-linecap:round;stroke-linejoin:round;stroke-dasharray:none"
                d="m-583.98-680.464-64.818-47.908 14.917 26.094-21.02-1.258-8.929 7.22 3.054 23.485 32.645-13.739z" />
            <path
                style="fill:none;fill-opacity:1;stroke:#fff;strokeWidth:.348277;stroke-linecap:round;stroke-linejoin:round;stroke-dasharray:none"
                d="m-646.92-858.004-1.878 129.632 64.817 47.908zM-646.92-858.004l62.94 177.54 10.334-154.995z" />
            <path
                style="fill:none;fill-opacity:1;stroke:#fff;strokeWidth:.348277;stroke-linecap:round;stroke-linejoin:round;stroke-dasharray:none"
                d="m-559.566-864.324 51.21-104.995-138.564 111.315z" />
            <path
                style="fill:none;fill-opacity:1;stroke:#fff;strokeWidth:.348277;stroke-linecap:round;stroke-linejoin:round;stroke-dasharray:none"
                d="m-559.566-864.324-87.354 6.32 73.274 22.545zM-536.54-865.99l28.185-103.33-51.211 104.996zM-536.54-865.99l-23.026 1.666-14.08 28.865zM-471.25-795.537l-37.105-173.782-28.185 103.33z" />
            <path
                style="fill:none;fill-opacity:1;stroke:#fff;strokeWidth:.348277;stroke-linecap:round;stroke-linejoin:round;stroke-dasharray:none"
                d="m-471.25-795.537-65.29-70.453-37.106 30.531zM-484.167-770.82l42.508 30.707-29.591-55.424z" />
            <path
                style="fill:none;fill-opacity:1;stroke:#fff;strokeWidth:.348277;stroke-linecap:round;stroke-linejoin:round;stroke-dasharray:none"
                d="m-484.167-770.82 12.917-24.717-102.396-39.922z" />
            <path
                style="fill:none;fill-opacity:1;stroke:#fff;strokeWidth:.348277;stroke-linecap:round;stroke-linejoin:round;stroke-dasharray:none"
                d="m-509.295-722.736 67.636-17.377-42.508-30.708zM-509.295-722.736l25.128-48.085-89.479-64.638z" />
            <path
                style="fill:none;fill-opacity:1;stroke:#fff;strokeWidth:.348277;stroke-linecap:round;stroke-linejoin:round;stroke-dasharray:none"
                d="m-509.295-722.736-64.35-112.723-10.336 154.995zM-463.899-688.96l-.776-2.306 23.016-48.847-67.636 17.377zM-445.886-635.375l55.894 1.41-73.907-54.994z" />
            <path
                style="fill:none;fill-opacity:1;stroke:#fff;strokeWidth:.348277;stroke-linecap:round;stroke-linejoin:round;stroke-dasharray:none"
                d="m-445.886-635.375-18.013-53.584-45.396-33.777-74.686 42.272z" />
            <path
                style="fill:none;fill-opacity:1;stroke:#fff;strokeWidth:.348277;stroke-linecap:round;stroke-linejoin:round;stroke-dasharray:none"
                d="m-445.886-635.375-138.095-45.09 30.064 62zM-442.598-590.754l52.606-43.212-55.894-1.409zM-448.704-561.165l20.198 35.695 23.703-58.927 14.811-49.569-52.606 43.212z" />
            <path
                style="fill:none;fill-opacity:1;stroke:#fff;strokeWidth:.348277;stroke-linecap:round;stroke-linejoin:round;stroke-dasharray:none"
                d="m-511.176-566.33 82.67 40.86-20.198-35.695z" />
            <path
                style="fill:none;fill-opacity:1;stroke:#fff;strokeWidth:.348277;stroke-linecap:round;stroke-linejoin:round;stroke-dasharray:none"
                d="m-511.176-566.33 62.472 5.165 6.106-29.59-3.288-44.62z" />
            <path
                style="fill:none;fill-opacity:1;stroke:#fff;strokeWidth:.348277;stroke-linecap:round;stroke-linejoin:round;stroke-dasharray:none"
                d="m-511.176-566.33 65.29-69.044-108.031 16.909zM-542.122-319.732l6.521-101.936-61.766 54.92-86.66 77.06zM-494.266-505.743l-41.335 84.075-6.52 101.936 42.22-8.939zM-494.266-505.743l65.76-19.727-82.67-40.86z" />
            <path
                style="fill:none;fill-opacity:1;stroke:#fff;strokeWidth:.348277;stroke-linecap:round;stroke-linejoin:round;stroke-dasharray:none"
                d="m-494.266-505.743-16.91-60.588-32.409 36.634z" />
            <path
                style="fill:none;fill-opacity:1;stroke:#fff;strokeWidth:.348277;stroke-linecap:round;stroke-linejoin:round;stroke-dasharray:none"
                d="m-494.266-505.743-49.319-23.954-134.804 35.228 134.804-21.136zM-583.7-451.074l-100.328 161.385 86.661-77.058 61.766-54.921 41.335-84.075z" />
            <path
                style="fill:none;fill-opacity:1;stroke:#fff;strokeWidth:.348277;stroke-linecap:round;stroke-linejoin:round;stroke-dasharray:none"
                d="m-583.7-451.074 89.434-54.669-49.319-9.862zM-728.52-362.552l44.492 72.863L-583.7-451.074l-61.172 37.392z" />
            <path
                style="fill:none;fill-opacity:1;stroke:#fff;strokeWidth:.348277;stroke-linecap:round;stroke-linejoin:round;stroke-dasharray:none"
                d="m-728.52-362.552 83.648-51.13 61.172-37.392 40.115-64.531-185.252 152.537zM-785.484-327.732l101.456 38.043-44.492-72.863z" />
            <path
                style="fill:none;fill-opacity:1;stroke:#fff;strokeWidth:.348277;stroke-linecap:round;stroke-linejoin:round;stroke-dasharray:none"
                d="m-785.484-327.732 56.964-34.82-.317-.516z" />
            <path
                style="fill:none;fill-opacity:1;stroke:#fff;strokeWidth:.348277;stroke-linecap:round;stroke-linejoin:round;stroke-dasharray:none"
                d="m-721.133-497.287-170.034-25.599 105.683 195.154zM-721.133-497.287l-64.35 169.555 56.646-35.336 50.448-131.401z" />
            <path
                style="fill:none;fill-opacity:1;stroke:#fff;strokeWidth:.348277;stroke-linecap:round;stroke-linejoin:round;stroke-dasharray:none"
                d="m-690.133-561.634-201.034 38.748 170.034 25.599z" />
            <path
                style="fill:none;fill-opacity:1;stroke:#fff;strokeWidth:.348277;stroke-linecap:round;stroke-linejoin:round;stroke-dasharray:none"
                d="m-690.133-561.634-31 64.347 42.744 2.818 134.804-35.228z" />
            <path
                style="fill:none;fill-opacity:1;stroke:#fff;strokeWidth:.348277;stroke-linecap:round;stroke-linejoin:round;stroke-dasharray:none"
                d="m-690.133-561.634 146.548 31.937 32.409-36.634z" />
            <path
                style="fill:none;fill-opacity:1;stroke:#fff;strokeWidth:.348277;stroke-linecap:round;stroke-linejoin:round;stroke-dasharray:none"
                d="m-690.133-561.634 178.957-4.697-42.741-52.134z" />
            <path
                style="fill:none;fill-opacity:1;stroke:#fff;strokeWidth:.348277;stroke-linecap:round;stroke-linejoin:round;stroke-dasharray:none"
                d="m-690.133-561.634 136.216-56.831-30.064-62z" />
            <path
                style="fill:none;fill-opacity:1;stroke:#fff;strokeWidth:.348277;stroke-linecap:round;stroke-linejoin:round;stroke-dasharray:none"
                d="m-733.347-623.164-157.82 100.278 201.034-38.748z" />
            <path
                style="fill:none;fill-opacity:1;stroke:#fff;strokeWidth:.348277;stroke-linecap:round;stroke-linejoin:round;stroke-dasharray:none"
                d="m-733.347-623.164 43.214 61.53 106.152-118.83zM-777.03-703.01l-114.137 180.124 157.82-100.278z" />
            <path
                style="fill:none;fill-opacity:1;stroke:#fff;strokeWidth:.348277;stroke-linecap:round;stroke-linejoin:round;stroke-dasharray:none"
                d="m-777.03-703.01 43.683 79.846 149.366-57.3-44.15-6.106-32.645 13.74z" />
            <path
                style="fill:none;fill-opacity:1;stroke:#fff;strokeWidth:.348277;stroke-linecap:round;stroke-linejoin:round;stroke-dasharray:none"
                d="m-777.03-703.01 116.254 30.18-13.623-7.518-13.27-30.528 38.87-17.496z" />
            <path
                style="fill:none;fill-opacity:1;stroke:#fff;strokeWidth:.348277;stroke-linecap:round;stroke-linejoin:round;stroke-dasharray:none"
                d="m-777.03-703.01 128.232-25.362 1.878-129.632-85.978 102.422zM-802.238-775.392l-33.504-100.93 2.818 124.935-58.243 228.501 114.137-180.123z" />
            <path
                style="fill:none;fill-opacity:1;stroke:#fff;strokeWidth:.348277;stroke-linecap:round;stroke-linejoin:round;stroke-dasharray:none"
                d="m-802.238-775.392 25.208 72.383 44.132-52.573 85.978-102.422z" />
            <path
                style="fill:none;fill-opacity:1;stroke:#fff;strokeWidth:.348277;stroke-linecap:round;stroke-linejoin:round;stroke-dasharray:none"
                d="m-762.146-865.39-73.596-10.932 33.504 100.93 37.274-33.433z" />
            <path
                style="fill:none;fill-opacity:1;stroke:#fff;strokeWidth:.348277;stroke-linecap:round;stroke-linejoin:round;stroke-dasharray:none"
                d="m-762.146-865.39-2.818 56.565-37.274 33.433 155.318-82.612z" />
            <path
                style="fill:none;fill-opacity:1;stroke:#fff;strokeWidth:.348277;stroke-linecap:round;stroke-linejoin:round;stroke-dasharray:none"
                d="m-762.146-865.39 115.226 7.386-92.657-22.282zM-820.71-973.077l-15.032 96.755 73.596 10.931z" />
            <path
                style="fill:none;fill-opacity:1;stroke:#fff;strokeWidth:.348277;stroke-linecap:round;stroke-linejoin:round;stroke-dasharray:none"
                d="m-820.71-973.077 58.564 107.686 22.57-14.895z" />
            <path
                style="fill:none;fill-opacity:1;stroke:#fff;strokeWidth:.348277;stroke-linecap:round;stroke-linejoin:round;stroke-dasharray:none"
                d="m-820.71-973.077 81.133 92.79 92.657 22.283z" />
            <circle
                style="fill:none;fill-opacity:1;stroke:#fff;strokeWidth:.348277;stroke-linecap:round;stroke-linejoin:round;stroke-dasharray:none"
                cx="-982.3" cy="-514.064" r="9.159" />
            <circle
                style="fill:none;fill-opacity:1;stroke:#fff;strokeWidth:.348277;stroke-linecap:round;stroke-linejoin:round;stroke-dasharray:none"
                cx="-401.117" cy="-976.187" r="9.159" />
            <path
                style="fill:none;stroke:#fff;strokeWidth:.348277;stroke-linecap:butt;stroke-linejoin:miter;stroke-dasharray:none;stroke-opacity:1"
                d="m-973.141-514.064 72.815-8.822M-508.355-969.32l98.08-6.867" />
        </g>
    </g>
    <g transform="matrix(.74937 0 0 .7493 422.704 296.965)" style="strokeWidth:1.33452">
        <ellipse
            style="fill:none;fill-opacity:1;stroke:none;strokeWidth:6.67259;stroke-linecap:round;stroke-linejoin:round;stroke-dasharray:none;stroke-opacity:0"
            id="b" cx="405.213" cy="561.172" rx="256.586" ry="256.576" /><text xml:space="preserve"
            style="font-size:13.3333px;line-height:1.25;font-family:sans-serif;fill:#dddddb;fill-opacity:1;strokeWidth:1.33452">
            <textPath xlink:href="#b" style="fill:#dddddb;fill-opacity:1;strokeWidth:1.33452">
                <tspan
                    style="font-style:normal;font-variant:normal;font-weight:400;font-stretch:normal;font-size:13.3333px;font-family:Garamond;-inkscape-font-specification:Garamond;fill:#dddddb;fill-opacity:1;strokeWidth:1.33452">
                    Copyright © Polydot Mysteries 2024</tspan>
            </textPath>
        </text>
    </g>
</svg>